<?xml version="1.0" encoding="utf-8"?>

<!DOCTYPE svg PUBLIC "-//W3C//DTD SVG 1.1//EN" "http://www.w3.org/Graphics/SVG/1.1/DTD/svg11.dtd">
<svg version="1.1" id="Layer_1" xmlns="http://www.w3.org/2000/svg" xmlns:xlink="http://www.w3.org/1999/xlink" x="0px" y="0px"
	 viewBox="3345.9 350.66 1628.302 1727.823" enable-background="new 3345.9 350.66 1628.302 1727.823" xml:space="preserve">
<g>
	<path fill="#434242" d="M4021.492,414.575c6.096,6.201,11.762,12.831,18.135,18.762c7.653,7.27,16.05,13.913,25.576,18.577
		c11.116,5.508,23.188,8.602,34.805,12.831c6.683,2.401,13.194,5.601,18.537,10.357c5.792,5.02,10.173,11.399,14.263,17.825
		c7.626-1.887,14.804-5.245,21.4-9.473c9.671-6.076,19.646-11.809,30.418-15.72c12.33-4.565,25.102-8.028,38.124-9.922
		c8.484-1.214,17.066-1.445,25.623-1.379c-13.029,4.169-26.229,7.916-38.902,13.121c-7.283,2.988-14.184,6.881-20.543,11.525
		c13.821-3.338,28.123-7.098,42.418-4.756c12.692,2.23,24.224,8.332,36.534,11.874c13.774,3.965,28.109,5.878,42.425,6.162
		c8.464,0.198,16.882-0.759,25.266-1.794c-6.049,4.301-12.501,8.319-19.771,10.139c-9.42,2.566-19.296,1.115-28.69-0.785
		c-13.346-2.725-26.434-6.973-40.083-7.962c-4.004-0.33-8.022-0.449-12.026-0.548c12.956,2.837,26.097,5.594,38.163,11.327
		c19.797,9.335,37.259,22.72,55.401,34.799c12.541,8.246,25.53,16.822,40.532,19.665c8.688,1.768,17.587,1.366,26.394,1.22
		c-6.696,3.061-13.603,5.766-20.741,7.613c-7.006,1.867-14.48,2.104-21.493,0.172c-10.206-2.612-18.814-8.952-27.087-15.186
		c3.708,5.647,7.56,11.32,12.561,15.925c7.718,6.821,17.567,10.357,26.553,15.12c7.606,4.018,15.667,8.286,20.549,15.655
		c2.87,4.341,4.572,9.328,5.818,14.348c-4.954-5.073-9.572-10.614-15.522-14.573c-4.677-3.279-10.509-4.057-16.083-4.116
		c1.649,4.275,3.45,8.517,5.865,12.429c4.348,7.171,10.245,13.194,15.602,19.593c-6.584-3.331-13.339-6.696-18.742-11.815
		c-4.057-3.846-6.096-9.157-7.936-14.296c0.686,11.056,2.474,22.08,6.017,32.602c4.235,12.752,9.176,25.273,14.427,37.635
		c-4.79-3.226-8.589-7.692-12.191-12.138c-7.956-9.975-11.188-22.568-17.146-33.658c-4.083-7.606-8.768-14.889-13.755-21.928
		c3.648,15.542,7.672,31.085,9.17,47.03c0.726,9.104,1.102,18.293,0.462,27.41c-4.671-12.132-9.15-24.369-14.962-36.013
		c-3.576-7.118-7.679-14.071-13.062-19.989c-5.489-6.076-12.138-11.116-19.54-14.625c-6.32-3.054-13.543-5.086-20.53-3.239
		c0.851,9.579,1.656,19.23,0.646,28.829c-0.957,8.926-3.114,17.673-5.324,26.355c-1.688-11.485-3.608-23.017-7.21-34.08
		c-2.87-8.444-7.177-16.387-12.31-23.65c-1.346,7.455-2.243,15.048-1.762,22.634c0.779,12.58,4.143,24.976,9.665,36.303
		c3.008,6.366,6.656,12.396,10.047,18.564c-7.771-6.808-14.975-14.368-20.84-22.898c-6.617-9.684-10.047-21.011-13.768-32.008
		c-4.42,11.043-9.348,21.895-14.797,32.47c-7.046,13.695-15.965,26.52-26.902,37.385c7.065-10.456,12.316-22.139,15.312-34.403
		c1.273-5.535,2.17-11.386,0.758-16.981c-1.26-5.126-4.492-9.473-8.015-13.28c-1.643,6.524-3.18,13.102-5.462,19.435
		c-2.981,8.22-8.365,15.226-13.471,22.225c-7.131-10.271-14.513-20.576-19.111-32.285c-3.127-7.791-4.387-16.116-6.122-24.277
		c-1.715,7.586-3.503,15.193-4.09,22.964c-0.779,10.555,0.699,21.354,4.829,31.131c1.425,3.549,3.285,6.907,4.869,10.39
		c-9.988-7.263-20.147-14.652-27.892-24.389c-9.335-11.94-14.527-26.724-16.611-41.627c-1.22-8.787-0.739-17.68-0.026-26.487
		c-3.318,17.033-6.043,34.304-11.841,50.73c-3.681,10.384-8.741,20.444-16.083,28.743c-4.453,5.073-9.783,9.348-15.648,12.686
		c-9.15,5.258-19.217,8.622-29.238,11.782c-10.839,3.404-21.691,6.762-32.523,10.205c-1.108,0.35-2.243,0.6-3.391,0.745
		c14.738-10.865,29.798-21.499,42.649-34.627c6.109-6.208,11.413-13.293,15.028-21.249c3.708-7.969,5.707-16.572,7.514-25.128
		c-6.036,8.51-11.94,17.132-18.755,25.049c-6.432,7.52-13.807,14.612-22.958,18.676c-6.9,3.206-14.975,3.707-22.159,1.174
		c-10.72-3.681-19.685-10.958-28.057-18.372c-7.56,0.726-15.127,2.263-22.021,5.541c-9.486,4.519-18.313,10.463-26.124,17.495
		c-4.651,4.117-8.372,9.11-12.376,13.821c1.867-7.323,3.938-14.619,6.65-21.684c1.623-3.998,3.338-8.127,6.445-11.228
		c5.073-5.146,11.604-8.464,18.208-11.188c-3.595-3.846-8.879-5.383-13.886-6.346c-7.23-1.128-14.56-1.306-21.862-1.531
		c5.218-1.168,10.568-1.491,15.866-2.144c7.296-0.686,14.52-2.177,21.875-2.19c3.932,0.007,7.765,1.042,11.683,1.273
		c-3.892-2.731-8.57-4.011-13.082-5.304c-14.863-3.806-30.214-5.225-45.506-5.884c-3.312-0.191-6.643-0.178-9.915-0.745
		c1.049-0.442,2.137-0.858,3.279-1.029c9.724-1.629,19.639-1.801,29.317-3.74c6.307-1.227,12.396-3.318,18.438-5.475
		c-11.393,0.891-23.023,1.115-34.245-1.339c7.969-0.231,15.43-3.404,22.251-7.309c9.763-5.64,19.052-12.659,25.517-22.021
		c5.033-7.019,8.134-15.298,13.788-21.882c5.574-6.274,14.124-8.187,21.935-10.1c10.582-2.441,20.787-6.604,29.904-12.528
		c6.96-4.453,13.333-9.836,20.695-13.662c6.854-3.543,14.599-4.723,22.199-5.416c-6.775-1.22-13.854-1.808-20.635-0.343
		c-6.181,1.339-11.188,5.429-16.143,9.117c-5.601,4.275-11.558,8.207-18.194,10.667c-9.42,3.523-19.553,5.337-29.614,4.836
		c-9.744-0.416-19.19-4.73-26.163-11.479c3.615,2.065,7.224,4.321,11.36,5.205c8.503,1.966,17.337-0.092,25.378-3.002
		c7.652-2.876,14.916-7.144,20.457-13.233c6.096-6.386,10.687-14.645,18.887-18.656c10.047-4.908,21.539-5.218,32.503-5.099
		c8.589,0.172,17.139,1.108,25.688,1.907c-7.817-4.268-15.641-8.635-22.594-14.249c-15.852-12.613-29-28.439-39.206-45.895
		C4028.003,426.436,4024.579,420.598,4021.492,414.575 M4190.862,497.248c-10.905,3.101-21.348,7.606-31.705,12.165
		c11.393-2.177,22.759-4.816,34.357-5.614c8.82-0.594,17.64,1.234,25.847,4.38c15.199,5.845,29.627,13.491,44.905,19.144
		c13.201,4.941,26.605,9.374,40.156,13.266c-19.797-10.905-39.522-21.935-59.063-33.288c-9.203-5.238-18.729-10.483-29.297-12.244
		C4207.631,493.6,4199.009,494.965,4190.862,497.248 M4110.452,505.237c8.8,3.74,17.211,8.292,25.801,12.468
		c-3.912-4.083-7.837-8.358-12.812-11.155C4119.489,504.326,4114.772,504.623,4110.452,505.237 M4204.649,516.234
		c2.605,2.527,5.7,4.466,8.404,6.881c5.99,5.02,11.234,10.885,15.648,17.33c2.098,2.771,3.694,5.931,5.977,8.563
		c4.044,2.817,8.326,5.311,12.35,8.174c7.659,5.35,15.351,11.274,20.035,19.54c3.76,6.399,5.488,13.669,7.421,20.76
		c0.488-11.934-2.527-23.723-7.626-34.443c-4.968-10.614-11.281-20.846-20.009-28.776c-8.681-7.817-19.804-12.132-30.854-15.384
		C4212.249,517.87,4208.574,516.366,4204.649,516.234 M4099.851,521.327c5.884,1.141,11.868,1.735,17.752,2.896
		c8.358,1.366,16.446,4.057,24.033,7.817c-4.294-3.615-9.104-6.696-14.282-8.893
		C4118.632,519.572,4108.994,520.713,4099.851,521.327 M4066.186,522.738c-7.778,1.194-15.015,4.578-21.585,8.787
		c-11.65,7.25-22.291,16.209-34.858,21.915c-10.469,4.882-21.988,6.669-33.367,7.969c12.745,1.616,25.886,1.86,38.414-1.339
		c7.936-1.966,15.193-6.01,21.585-11.043c9.645-7.29,17.871-16.657,28.96-21.875c4.552-2.309,9.559-3.457,14.309-5.264
		C4075.145,521.894,4070.626,522.019,4066.186,522.738 M4165.101,526.749c8.675,7.613,18.095,15.127,23.202,25.761
		c2.229,4.855,4.248,9.909,5.139,15.199c-1.28-4.354-3.107-8.721-6.326-12.006c-3.51-3.444-8.147-5.37-12.64-7.177
		c4.928,5.667,9.183,11.98,11.875,19.026c4.176,10.812,6.801,22.199,8.239,33.69c1.214,9.585,0.62,19.256-0.191,28.842
		c4.889-10.733,9.506-22.034,9.698-34.001c0.132-12.607-2.507-25.115-6.379-37.062c3.918,3.529,7.666,7.29,10.826,11.531
		c7.032,9.566,10.588,21.249,12.283,32.879c1.9,13.016-0.468,26.117-3.167,38.836c4.486-10.232,7.441-21.183,8.247-32.345
		c0.937-12.732,0.145-25.768-3.701-38.005c-3.391-10.43-8.893-20.312-16.677-28.103c-5.126-5.165-11.664-8.754-18.584-10.911
		C4179.719,530.668,4172.443,528.577,4165.101,526.749 M4139.201,561.706c-3.978,10.265-5.37,21.42-4.539,32.378
		c1.147,16.11,4.565,31.949,7.89,47.722c0.33-17.31-0.594-35.221,5.581-51.727c1.59-4.928,4.334-9.42,5.772-14.388
		c-1.016-12.389-3.906-24.758-2.738-37.253C4145.97,545.491,4142.381,553.579,4139.201,561.706 M4096.71,544.073
		c-9.816,1.86-19.686,3.787-29.073,7.29c-9.124,3.298-17.112,9.15-23.762,16.136c-9.513-0.383-19.204-0.844-28.525,1.478
		c-11.637,2.837-22.113,9.216-31.118,16.974c-6.472,5.423-12.086,11.894-19.224,16.486c-5.766,3.727-12.389,5.713-18.808,7.969
		c8.813-1.887,17.865-3.78,25.682-8.484c9.526-5.706,17.337-13.985,27.457-18.742c11.525-5.673,24.56-6.419,37.121-7.718
		c-6.419,7.243-14.15,13.53-23.267,17.02c-11.624,4.994-24.349,6.577-36.085,11.169c7.25-1.418,14.559-2.606,21.922-3.358
		c10.12-1.036,20.675-0.745,30.201-4.822c10.41-4.499,18.333-13.148,24.613-22.357c13.207-2.408,25.629-7.798,37.503-13.887
		c-3.773,1.445-7.428,3.193-11.254,4.492c-7.197,2.579-14.803,4.037-22.449,4.103c4.334-6.663,10.317-12.389,17.759-15.417
		c9.684-4.018,19.916-6.531,29.91-9.658C4102.403,542.912,4099.567,543.571,4096.71,544.073 M4264.721,544.719
		c20.246,18.986,40.38,38.75,54.616,62.816c6.419,10.7,11.564,22.086,17.08,33.262c-2.27-10.443-5.555-20.668-10.113-30.352
		c-7.646-16.38-16.96-32.483-30.504-44.714C4286.464,557.326,4275.612,550.868,4264.721,544.719 M4101.104,562.3
		c-9.849,5.865-20.081,11.136-30.814,15.199c-9.968,4.018-20.629,7.514-28.584,15.074c-7.771,7.659-11.017,18.399-14.599,28.406
		c-1.887,5.06-3.885,10.621-8.477,13.867c-4.037,2.797-9.308,1.695-13.55-0.007c-10.601-4.374-19.494-11.815-29.224-17.733
		c-2.837-1.735-5.977-3.002-9.289-3.437c2.87,1.689,5.977,2.962,8.813,4.723c10.634,6.201,18.3,16.426,29.258,22.139
		c5.06,2.672,11.142,4.163,16.743,2.349c5.218-1.629,9.15-5.785,12.092-10.225c7.085-10.746,11.611-23.069,19.731-33.15
		c5.495-6.821,13.029-11.578,20.721-15.569c6.847-3.543,13.754-7.052,19.962-11.67c7.962-5.772,15.186-12.462,22.403-19.118
		C4111.131,556.026,4106.229,559.358,4101.104,562.3 M3948.695,606.453c3.833-0.607,7.56-1.972,10.72-4.262
		C3955.826,603.584,3952.218,604.91,3948.695,606.453z"/>
	<path fill="#434242" d="M4282.783,613.063c9.038,4.202,17.891,9.394,24.527,16.967c7.065,8.002,11.433,17.904,15.226,27.766
		c5.007,13.266,8.833,27.028,10.72,41.099c0.099,0.976,0.073,1.972,0.013,2.962c-3.78-11.314-7.54-22.812-13.913-32.978
		c-6.538-10.377-16.083-18.326-25.563-25.893c3.107,7.481,3.272,15.78,1.788,23.657c-2.48,13.702-6.353,27.107-10.252,40.459
		c-0.02-5.317,1.155-10.562,1.557-15.852c1.022-10.159,1.906-20.437,0.706-30.623c-0.758-6.472-2.348-12.811-4.242-19.032
		c-1.049-2.79,0.066-5.733,0.224-8.569C4284.459,626.376,4283.905,619.647,4282.783,613.063z"/>
	<path fill="#434242" d="M4112.114,648.1c5.931,8.787,11.907,17.64,19.408,25.194c6.148,6.412,13.114,11.947,19.672,17.93
		c-5.838-2.626-11.538-5.548-17.178-8.569c-4.803-2.692-9.744-5.443-13.464-9.579c-2.091-2.263-3.417-5.073-4.638-7.864
		c-2.837,7.844-6.109,15.866-12.178,21.809c-7.309,7.177-16.492,11.993-25.471,16.736c-10.522,5.357-21.136,10.555-31.949,15.298
		c14.019-11.617,28.717-22.476,41.95-35.023c5.185-4.967,10.12-10.271,14.025-16.321
		C4106.295,661.571,4109.271,654.842,4112.114,648.1z"/>
	<path fill="#434242" d="M3959.956,664.566c5.033-2.955,10.588-5.706,16.565-5.654c5.977,0.172,10.911,4.097,15.226,7.844
		c-5.588-0.996-11.321-3.582-17.02-1.847c-5.073,1.689-9.328,5.06-13.669,8.068c-8.794,6.241-17.726,12.732-28.143,15.965
		c-7.145,2.236-14.606,3.351-22.047,3.965c8.503-3.635,17.475-6.274,25.537-10.905
		C3945.021,677.245,3951.479,669.52,3959.956,664.566z"/>
	<path fill="#434242" d="M4660.537,670.114c15.602-3.444,31.593-5.198,47.577-4.842c27.397,0.521,54.352,6.419,80.667,13.682
		c19.632,5.482,39.14,11.69,57.703,20.187c10.991,5.126,21.83,11.01,30.821,19.256c7.178,6.557,12.805,15.133,14.625,24.798
		c2.309,11.874-0.508,24.052-4.75,35.162c-6.63,17.013-16.631,32.49-27.667,46.95c-12.449,16.182-26.513,31.072-41.508,44.899
		c-15.338,14.111-31.711,27.107-49.021,38.724c-17.838,11.954-36.725,22.43-56.668,30.451c-22.594,9.117-46.422,15.384-70.706,17.7
		c-16.736,1.583-33.744,1.141-50.249-2.197c-21.13-4.156-41.033-13.161-59.234-24.514c-20.193-12.514-38.744-27.463-56.767-42.887
		c-4.869-4.341-10.212-8.207-14.573-13.082c3.886,0.574,7.21,2.889,10.753,4.46c10.971,5.416,21.631,11.459,32.708,16.684
		c7.6,3.51,16.077,5.95,24.507,4.559c11.861-1.854,22.463-7.824,33.169-12.89c4.4-2.039,9.275-3.905,14.203-3.002
		c5.251,0.91,9.454,4.506,13.188,8.081c9.084,8.926,16.842,19.21,26.836,27.206c8.477,6.94,19.138,10.944,30.029,11.795
		c14.514,1.188,29.04-1.029,43.27-3.727c20.101-4.13,40.083-9.645,58.667-18.491c18.148-8.741,34.211-21.203,49.075-34.68
		c16.222-14.935,31.084-31.639,42.095-50.836c10.859-18.953,18.353-39.779,22.529-61.2c1.88-10.403,3.199-21.268,0.712-31.692
		c-1.432-6.181-5.106-11.802-10.337-15.417c-7.606-5.33-16.572-8.18-25.279-11.129c-24.547-7.864-49.721-13.801-75.218-17.574
		c-16.572-2.414-33.387-3.707-50.117-2.467c-22.792,1.537-45.024,8.174-65.586,17.983c-20.741,9.81-40.268,22.04-58.746,35.604
		c-16.717,12.27-32.411,25.913-47.069,40.578c-13.972,13.768-26.816,28.624-40.598,42.583c-4.598,4.479-9.295,9.025-14.961,12.132
		c-3.615,1.992-8.075,2.949-12.026,1.379c-5.027-1.979-8.675-6.221-11.934-10.351c-6.92-9.137-12.429-19.256-17.363-29.567
		c-4.334-9.348-8.326-18.953-10.483-29.06c-1.365-6.333-1.213-13.313,2.19-19.012c1.319-2.606,3.853-5.271,2.83-8.411
		c-1.207-2.982-3.787-5.099-6.063-7.257c-7.725-6.775-16.004-12.937-23.149-20.352c-5.37-5.548-10.08-11.769-13.781-18.557
		c-1.629-3.127-3.246-6.373-3.728-9.902c-0.224-1.339,0.007-3.285,1.683-3.516c2.975,0.092,5.521,1.9,8.021,3.345
		c8.372,5.357,16.136,11.591,24.112,17.508c17.41,13.148,35.544,25.491,55.058,35.327c7.244,3.51,14.671,7.006,22.68,8.319
		c6.393,1.062,12.891-0.488,18.722-3.114c8.141-3.648,15.721-8.398,23.379-12.937c18.782-11.38,37.629-22.726,57.42-32.292
		C4613.996,683.961,4636.84,675.332,4660.537,670.114z"/>
	<path fill="#434242" d="M4687.518,698.718c16.948-3.582,34.344-4.671,51.634-4.367c10.074,0.092,19.916,2.507,29.64,4.895
		c13.346,3.378,26.487,7.943,38.486,14.777c7.415,4.255,14.791,8.675,21.665,13.768c-11.314-4.987-22.892-9.566-35.076-11.907
		c-20.608-4.044-41.62-5.324-62.519-6.96l-0.04,0.336c11.268,2.467,22.027,6.854,32.187,12.27
		c12.29,6.551,24.606,13.893,33.539,24.824c-8.919-5.073-17.838-10.252-27.482-13.854c-14.5-5.568-29.746-8.794-44.899-12.02
		c-7.521-1.412-14.968-3.331-22.568-4.262c9.288,4.974,19.25,8.543,29.31,11.604c9.599,2.929,19.632,4.499,29.68,4.486
		c-5.324,1.161-10.806,1.326-16.202,1.953c-22.839,2.283-45.849,0.805-68.608-1.643c8.444,6.353,18.894,8.926,28.229,13.603
		c1.056,0.501,1.92,1.313,2.685,2.217c-5.027,1.649-10.423,1.154-15.503,0.092c-12.138-1.999-24.264-4.103-36.409-6.03
		c6.9,6.333,15.121,11.056,23.868,14.355c5.699,2.217,11.511,4.314,17.601,5.172c-11.703,0.719-23.261-2.513-33.909-7.144
		c-5.917-2.48-11.683-5.291-17.481-8.015c3.305,5.588,7.415,10.918,13.048,14.335c3.906,2.606,8.352,4.202,12.422,6.511
		c-9.599-1.669-18.762-5.667-26.546-11.525c-1.84-1.306-3.608-2.718-5.469-3.991c4.262,7.758,10.054,14.619,16.69,20.457
		c9.235,8.154,19.685,15.041,31.111,19.705c11.934,4.77,24.719,6.92,37.438,8.339c2.52,0.303,5.073,0.435,7.58,0.95
		c-13.583,0.765-27.318,0.046-40.604-2.982c-16.242-3.615-31.837-9.519-47.637-14.619c9.164,5.871,18.379,11.874,28.625,15.714
		c2.586,1.102,5.429,1.689,7.725,3.404c-1.51,0.304-3.054,0.554-4.558,0.224c-14.335-2.784-29-5.06-42.319-11.353
		c8.022,6.122,16.842,11.545,26.83,13.695c-4.631-0.099-9.084-1.603-13.543-2.692c-13.972-3.853-26.902-10.509-40.136-16.255
		c7.89,6.491,16.783,11.597,25.807,16.314c2.988,1.603,6.168,2.79,9.315,4.07c-5.476,0.93-10.958-0.99-16.097-2.705
		c-12.442-4.697-24.375-10.634-36.375-16.334c5.7,4.677,11.69,8.998,17.495,13.55c7.019,5.508,14.415,10.628,22.535,14.394
		c11.38,5.383,23.683,8.378,35.907,11.142c9.038,2.005,18.142,3.727,27.232,5.482c-13.055-0.528-26.084-1.9-39.034-3.595
		c-13.266-1.808-26.381-4.836-38.955-9.453c-11.129-3.971-21.849-8.972-32.602-13.827c6.32,6.854,13.992,12.317,21.77,17.403
		c9.585,6.168,19.619,11.69,30.135,16.116c14.902,6.3,30.9,9.407,46.838,11.729c-5.95,0.435-11.907-0.435-17.851-0.673
		c-16.268-1.108-32.49-3.292-48.342-7.158c-8.82-2.124-17.482-5.04-25.557-9.203c-2.573-1.267-5.02-2.751-7.586-3.991
		c7.738,9.473,16.222,18.57,26.474,25.365c7.784,5.37,16.406,9.335,24.586,14.005c-10.43-2.784-20.714-6.161-30.834-9.928
		c-12.375-4.723-24.573-10.225-35.438-17.871c-5.904-3.978-11.188-8.761-16.869-13.003c2.27,9.104,7.751,16.961,14.104,23.716
		c4.895,5.278,10.225,10.265,16.4,14.032c2.15,1.352,4.512,2.355,6.597,3.846c-10.865-2.711-20.721-8.431-29.402-15.384
		c-9.321-7.468-18.518-15.377-25.51-25.154c3.285,9.196,9.321,17.139,16.4,23.756c4.545,4.215,9.084,8.583,14.5,11.67
		c-6.234-0.409-11.472-4.275-16.176-8.048c-10.522-8.741-19.975-18.663-29.746-28.208c2.316,13.834,5.192,27.588,9.368,40.987
		c-7.949-7.962-16.175-16.294-20.298-26.981c-2.21-5.739-3.787-11.776-4.203-17.924c16.294-16.36,32.642-32.694,49.893-48.052
		c15.477-13.781,31.942-26.447,49.306-37.754c16.163-10.476,32.938-20.081,50.533-27.964
		C4662.278,705.836,4674.694,701.423,4687.518,698.718z"/>
	<path fill="#434242" d="M3923.739,699.569c2.065-1.57,4.149-3.404,6.847-3.668c-0.429,3.536-2.645,6.432-4.512,9.341
		c-5.456,7.923-11.333,15.734-14.823,24.791c-3.226,8.226-4.11,17.086-5.95,25.669c-0.864,3.879-2.039,7.989-5.086,10.76
		c-3.523,3.16-7.976,5.073-11.4,8.372c-5.706,5.37-9.552,12.336-13.233,19.171c-6.095,11.551-10.707,23.789-15.549,35.901
		c-1.827,4.156-3.365,8.602-6.379,12.079c-0.937,1.24-2.85,1.596-3.899,0.29c-3.787-4.143-5.179-9.942-9.097-13.992
		c-1.022-1.029-2.448-1.907-3.945-1.59c-2.309,0.508-4.057,2.23-5.66,3.846c-6.96,7.402-11.967,16.631-20.134,22.878
		c-4.209,3.266-9.849,5.218-15.12,3.615c-6.458-1.893-11.149-7.085-15.417-12c-7.553-9.018-14.355-18.636-21.994-27.582
		c-14.071-16.776-30.88-31.21-49.444-42.794c-19.745-12.349-41.851-21.209-64.993-24.409c-26.051-3.793-52.657-0.475-77.89,6.511
		c-24.158,6.709-47.656,16.011-69.545,28.274c-16.545,9.46-32.49,21.084-43.335,37.022c-4.823,7.349-9.242,15.648-9.064,24.686
		c0.171,8.477,4.532,16.182,9.677,22.667c7.138,8.886,15.912,16.275,24.811,23.327c16.651,12.97,34.363,24.521,52.446,35.379
		c19.289,11.492,39.08,22.205,59.63,31.289c20.464,9.038,41.831,16.255,63.911,20.107c17.158,3.008,34.647,4.13,52.05,3.358
		c12.943-0.646,25.939-2.217,38.374-5.977c9.467-2.87,18.682-7.547,25.339-15.021c7.811-8.655,11.841-19.837,15.437-30.729
		c3.127-9.288,5.607-18.847,9.856-27.72c1.834-3.595,4.183-7.626,8.358-8.741c4.486-1.003,8.728,1.577,12.204,4.117
		c7.197,5.535,13.049,12.547,19.026,19.322c8.068,9.275,15.991,18.781,25.418,26.737c9.282,7.91,20.424,13.181,31.639,17.752
		c2.375,1.102,5.067,1.854,6.92,3.813c0.218,1.115-1.062,1.267-1.84,1.517c-4.347,0.798-8.794,0.488-13.181,0.33
		c-12.693-0.745-25.378-2.421-37.642-5.851c-5.561-1.544-11.525-2.408-17.178-0.818c-8.827,2.362-16.136,8.154-23.248,13.629
		c-14.652,11.63-29.027,23.795-45.328,33.103c-11.452,6.63-23.927,11.604-36.969,13.972c-22.456,4.196-45.591,1.273-67.513-4.38
		c-20.365-5.284-40.037-12.897-59.287-21.308c-23.525-10.344-46.462-22.014-68.78-34.753c-17.106-9.823-33.928-20.226-49.787-31.982
		c-10.37-7.758-20.358-16.149-28.868-25.952c-7.098-8.174-13.016-17.548-16.215-27.951c-3.542-11.611-4.552-24.231-1.372-36.046
		c3.048-11.551,9.704-21.809,17.574-30.663c12.719-14.131,28.195-25.425,43.982-35.867c20.312-13.194,41.739-24.725,64.096-34.06
		c22.515-9.354,46.634-16.13,71.214-15.391c22.918,0.541,45.044,7.712,65.996,16.532c21.546,9.031,42.069,20.239,62.842,30.86
		c9.869,4.908,20.22,9.843,31.448,10.172c11.195,0.297,22.073-3.173,32.358-7.276c19.329-7.969,37.081-19.362,53.428-32.318
		c10.417-8.24,20.371-17.046,30.227-25.952C3911.323,710.461,3917.313,704.754,3923.739,699.569z"/>
	<path fill="#434242" d="M3930.876,710.579c-0.04,1.003-0.125,2.019-0.35,3.002c-3.51,14.19-6.999,28.4-9.737,42.761
		c-1.913,10.285-3.51,20.774-2.606,31.256c0.481,5.113,1.445,10.192,3.008,15.087c0.112-10.357,1.372-20.945,5.957-30.353
		c0.402,11.01-1.722,22.502,2.177,33.11c2.355-10.483,8.101-20.233,16.505-26.988c3.694-2.922,7.619-5.581,11.743-7.87
		c-3.978,4.77-8.405,9.216-11.611,14.579c-4.677,7.375-5.759,16.242-6.676,24.732c1.748-3.252,3.021-6.755,5.033-9.869
		c3.239-5.271,7.996-9.46,13.082-12.89c-5.667,9.11-11.122,18.63-13.115,29.31c4.459-10.812,11.386-20.985,21.447-27.272
		c4.651-2.969,10.199-3.965,15.615-4.394c-6.518,5.165-13.484,9.849-19.25,15.892c-2.678,2.758-4.44,6.346-4.809,10.192
		c10.634,1.049,21.493,3.437,30.451,9.539c4.915,3.292,8.457,8.16,11.637,13.055c-2.989-1.392-5.964-3.015-9.275-3.457
		c-3.998-0.528-8.009,0.185-11.954,0.759c3.292,7.659,6.109,15.536,9.79,23.017c3.655,7.481,9.915,13.115,15.787,18.821
		c-4.572-1.867-9.005-4.136-13.082-6.92c-3.945-2.685-6.821-6.557-9.486-10.443c4.618,15.701,9.856,31.342,17.667,45.783
		c3.872,7.388,8.352,14.434,12.541,21.651c-5.291-4.394-10.067-9.473-13.821-15.246c-6.254-9.895-9.896-21.117-15.239-31.487
		c-3.325-6.518-7.408-12.62-11.716-18.524c-0.251,4.163-0.211,8.411-1.346,12.462c-0.831,3.028-2.659,5.647-4.631,8.048
		c0.818-4.888,2.342-9.737,1.92-14.757c-0.178-4.453-1.906-8.629-3.991-12.501c-2.236,1.392-4.479,3.054-5.581,5.541
		c-1.847,4.11-1.933,8.708-2.52,13.108c-1.346-3.958-2.329-8.068-2.646-12.237c-0.442-7.435,1.867-14.652,2.177-22.04
		c-6.577-0.257-13.313-0.185-19.613,1.966c-6.208,2.098-12.356,5.251-16.565,10.41c-2.078,2.467-3.411,5.423-5.086,8.154
		c-0.04-3.833,0.105-7.712,1.082-11.439c1.201-4.651,3.358-8.965,5.291-13.339c-6.366,6.3-12.33,13.583-14.698,22.39
		c-1.432,4.882-1.814,9.968-2.593,14.968c-2.256-13.834-2.203-27.951-1.359-41.91c1.531-23.591,5.495-47.062,12.317-69.703
		C3917.498,740.734,3924.167,725.62,3930.876,710.579z"/>
	<path fill="#434242" d="M3585.098,759.331c10.397-2.731,21.209-3.338,31.916-3.582c16.499-0.165,33.209,1.649,48.824,7.191
		c18.042,6.32,34.106,17.086,49.088,28.763c15.925,12.508,30.946,26.144,45.275,40.452c8.774,8.945,17.423,18.28,23.465,29.35
		c5.944,10.628,7.527,23.234,5.904,35.195c-1.708,12.402-5.278,24.613-10.918,35.808c-4.103,8.391-10.482,15.47-17.904,21.077
		c4.835-8.259,10.186-16.222,15.193-24.382c0.389-0.752,0.679-1.537,0.877-2.362c-3.754,3.543-6.175,8.22-9.565,12.086
		c-7.243,9.414-16.961,16.512-27.074,22.548c7.059-8.609,14.704-16.835,20.49-26.407c7.316-11.69,10.601-25.293,13.326-38.651
		c-6.867,10.206-15.529,19.105-25.121,26.777c-6.61,5.284-14.052,9.5-21.855,12.725c7.29-6.432,15.008-12.415,21.75-19.454
		c7.435-7.626,13.451-16.512,18.834-25.662c-3.556,2.494-6.947,5.231-10.753,7.362c-10.865,6.313-23.373,8.761-35.558,11.169
		c-7.87,1.484-15.78,2.771-23.689,4.037l-0.059-0.429c13.708-5.165,27.324-10.568,41.006-15.806c2.085-0.64,2.995-2.791,4.321-4.328
		c2.236-3.147,5.014-6.069,6.148-9.843c-3.384,0.508-6.188,2.626-9.177,4.13c-6.498,3.45-13.26,6.96-20.648,7.857
		c1.92-1.735,4.242-2.916,6.419-4.288c6.089-3.76,11.399-8.688,16.123-14.038c-7.481,5.845-15.806,10.535-24.56,14.183
		c-5.04,2.118-10.1,4.268-15.397,5.654c6.894-7.382,15.549-13.801,19.197-23.571c-10.449,3.358-18.524,11.202-25.669,19.197
		c-2.362,2.599-4.38,5.482-6.722,8.101c3.859-10.212,7.903-20.549,14.368-29.442c6.881-9.374,16.809-15.753,26.414-21.994
		c-11.202,0.495-22.08,3.747-32.292,8.246c-7.415,3.298-14.936,6.445-22.04,10.37c4.809-6.571,10.423-12.594,16.895-17.548
		c1.867-1.451,3.846-2.764,5.541-4.413c-3.411,0.046-6.702,0.983-9.961,1.893c-13.715,3.965-26.513,10.595-38.46,18.339
		c-7.336,4.651-14.315,9.829-21.565,14.606c4.367-4.644,9.467-8.55,14.183-12.831c10.186-8.814,20.536-17.495,31.718-25.022
		c8.417-5.766,17.607-10.45,27.417-13.326c-25.029,3.8-48.553,13.491-72.593,20.978c-1.715,0.567-3.47,1.062-5.225,1.458
		c5.192-3.279,10.918-5.68,16.044-9.11c7.243-4.433,13.372-10.601,17.792-17.851c1.557-2.639,3.344-5.251,3.932-8.319
		c-4.334-0.323-8.53,1.095-12.719,1.953c-3.569,0.699-7.019,2.21-10.707,2.111c1.253-4.433,4.796-7.639,6.914-11.624
		c-5.594,0-11.175,1.016-16.486,2.718c-3.49,1.095-6.359,3.404-9.11,5.72c1.61-4.704,3.305-9.645,6.933-13.207
		c3.048-3.041,7.046-4.756,10.694-6.914c-6.452,0.152-13.121,0.422-19.111,3.087c-6.61,2.936-11.967,7.916-17.495,12.455
		c2.005-3.477,4.664-6.518,7.224-9.585c5.324-6.082,10.891-12.092,17.62-16.651c2.104-1.458,4.354-2.678,6.465-4.123
		c-9.79,3.661-19.593,7.402-28.908,12.178c-6.438,3.292-12.422,7.547-17.33,12.884c-2.83,2.929-5.192,6.274-7.844,9.361
		c1.531-7.032,6.023-12.791,9.849-18.696c-8.18,0.726-15.173,5.535-21.519,10.37c-7.817,6.056-14.137,13.715-20.833,20.919
		c2.573-6.333,5.72-12.528,10.173-17.759c7.158-8.154,16.439-13.992,25.385-19.962c-12.218,3.991-24.396,8.292-35.967,13.946
		c-11.01,5.37-20.635,13.049-30.036,20.807c5.423-7.692,11.406-14.988,17.211-22.397c8.22-10.186,16.644-20.299,26.414-29.046
		C3565.459,767.682,3574.787,762.022,3585.098,759.331z"/>
	<path fill="#434242" d="M4896.707,755.564c0.462,6.867,0.35,13.774-0.073,20.642c-0.396,6.478-2.229,12.752-4.493,18.801
		c6.261-0.178,12.422,1.122,18.432,2.771c-8.015,0.33-15.14,4.288-21.994,8.061c4.063-0.099,8.154-0.488,12.211,0.066
		c4.717,0.587,9.071,2.711,13.161,5.033v0.172c-6.432-0.508-13.029-1.227-19.375,0.323c-6.333,1.583-11.38,5.957-16.195,10.12
		c2.916,0.053,5.858,0.033,8.767,0.449c5.647,0.772,10.713,3.701,15.298,6.947c-3.443-0.528-6.841-1.366-10.324-1.57
		c-5.897-0.449-11.729,0.732-17.495,1.768c2.903,2.164,5.872,4.321,8.233,7.111c2.626,3.107,4.895,6.505,6.96,10.014
		c-2.27-1.656-4.387-3.549-6.914-4.796c-2.949-1.537-6.359-1.273-9.546-0.99c2.606,1.986,5.495,3.648,7.798,6.023
		c2.553,2.619,4.38,5.832,6.056,9.064c-5.845-3.081-11.881-6.999-18.821-6.076c7.804,5.344,16.822,8.451,25.385,12.343
		c-4.75-0.297-9.493-0.732-14.243-0.917c-10.667-0.6-21.328,0.534-31.89,1.913c4.13,1.847,8.464,3.543,11.881,6.617
		c3.872,3.483,6.267,8.22,8.602,12.791c-1.768-1.61-3.377-3.424-5.489-4.578c-3.107-1.709-6.604-2.487-10.014-3.305
		c6.425,4.123,10.872,10.502,15.615,16.347c-4.849-2.111-9.645-4.387-14.725-5.871c-7.659-2.316-15.713-2.632-23.643-3.008
		c2.309,0.983,4.697,1.86,6.808,3.272c3.667,2.421,6.359,5.997,8.84,9.566c2.619,3.872,5.093,7.85,7.408,11.914
		c-7.283-5.64-14.17-12.277-22.984-15.47c-6.742-2.395-13.985-0.983-20.721,0.627c3.734,1.933,7.534,3.938,10.489,7.006
		c5.944,6.228,10.034,13.92,14.362,21.288c-6.485-4.321-12.66-9.209-19.705-12.607c-3.76-1.86-7.976-2.5-12.132-2.362
		c5.066,5.964,10.529,11.578,15.721,17.442c-3.332-1.003-6.624-2.131-10.034-2.784c-5.502-1.089-11.129-1.194-16.716-1.366
		c3.898,2.988,7.85,5.944,11.274,9.493c3.965,4.097,7.613,8.503,11.089,13.022c-6.722-3.622-13.299-7.58-20.457-10.298
		c-5.97-2.296-12.264-3.529-18.531-4.624c4.611,4.176,9.513,8.22,12.857,13.55c2.56,4.149,4.321,8.767,5.528,13.484
		c-1.953-3.16-3.701-6.59-6.735-8.86c-4.704-3.615-10.324-5.753-15.78-7.936c-2.23-0.64-5.581-1.649-7.138,0.706
		c-1.102,2.758-0.93,5.878-0.594,8.781c0.765,2.533,2.21,4.809,3.728,6.966c3.872,5.264,9.908,8.167,15.292,11.597
		c-6.03-0.778-12.198-1.755-17.633-4.605c-4.981-2.448-8.385-6.94-12.449-10.542c-3.648-3.298-8.444-4.789-13.088-6.043
		c5.924,3.668,8.365,10.489,12.581,15.707c6.663,8.945,16.717,14.236,25.847,20.233c-3.285-0.185-6.571-0.501-9.75-1.319
		c-9.909-2.599-18.03-9.381-24.851-16.756c-3.773-4.189-8.477-7.507-13.833-9.328c4.07,3.866,8.286,7.672,11.439,12.356
		c3.305,4.908,5.41,10.482,7.395,16.017c-3.753-2.474-6.9-5.739-9.394-9.46c-2.988-4.361-6.241-8.847-11.155-11.169
		c2.309,3.543,4.935,6.874,7.567,10.192c5.436,6.874,12.033,12.686,18.603,18.452c-9.414-2.659-19.837-4.763-26.803-12.204
		c-4.063-4.413-8.272-8.715-12.996-12.422c5.133,7.817,10.061,15.984,12.211,25.194c-7.455-2.969-14.955-6.201-21.348-11.129
		c-4.308-3.325-7.052-8.108-9.684-12.758c1.181,6.92,2.302,14.177,6.307,20.121c4.083,5.944,10.601,9.401,16.545,13.167
		c-7.784-0.541-15.714-2.349-22.186-6.9c-5.396-3.529-9.051-8.952-12.554-14.23c0.957,7.514,0.145,15.1-1.86,22.377
		c-1.088-5.06-1.821-10.331-4.519-14.85c-3.397-5.7-8.259-10.41-13.576-14.322c-0.291,6.683-0.501,13.774,2.777,19.844
		c3.655,7.032,9.13,12.871,13.854,19.177c-8.503-5.357-17.568-10.502-23.921-18.485c-4.71-5.884-5.785-13.616-9.717-19.929
		c0.403,7.521,0.231,15.067,0.798,22.581c0.383,5.403,1.682,10.667,2.665,15.978c-3.351-5.113-6.122-10.661-7.725-16.571
		c-1.339-4.737-1.768-9.704-3.45-14.342c-1.042-2.975-3.279-5.284-5.607-7.303c-0.33,8.154-0.627,16.44-3.147,24.277
		c-3.107,9.73-7.455,18.999-11.591,28.321c-0.02-11.353-0.336-22.7-0.712-34.047c-0.178-6.201-1.002-12.389-2.58-18.392
		c-3.648,16.822-9.71,32.971-15.575,49.108c-0.033-6.59,0.297-13.187-0.013-19.778c-0.363-7.705-0.871-15.674-4.334-22.713
		c-1.471,10.463-2.408,21.071-1.208,31.619c-4.743-10.938-8.391-22.377-10.166-34.179c-1.913,8.873-1.26,18.01,0.217,26.889
		c-2.56-4.275-4.677-8.833-6.228-13.57c-2.579-8.068-2.196-16.644-2.117-25.002c-3.529,6.135-6.723,12.679-7.527,19.797
		c-1.088,9.592,0.719,19.158,1.722,28.67c-4.849-7.468-8.49-15.714-11.148-24.198c-2.125-6.643-2.329-13.642-3.087-20.51
		c-1.643,10.483-3.437,21.262-1.392,31.817c1.385,7.428,4.552,14.329,7.428,21.255c-6.94-6.874-11.419-15.767-14.434-24.963
		c-4.453-13.181-8.286-26.586-13.583-39.463c0.488,4.288,1.227,8.543,1.643,12.844c0.963,8.853,0.792,17.766,0.561,26.652
		c-4.921-16.717-9.532-33.757-18.135-49.048c-5.858-10.667-13.306-20.319-20.444-30.128c21.387,13.385,42.675,27.463,66.49,36.23
		c24.587,9.15,51.324,11.353,77.323,9.044c43.797-4.07,86.083-20.074,122.854-43.975c18.135-11.835,35.096-25.392,51.166-39.885
		c14.639-13.28,28.598-27.357,41.231-42.577c13.345-16.169,25.378-33.743,33.103-53.336
		C4891.964,773.237,4894.279,764.371,4896.707,755.564z"/>
	<path fill="#434242" d="M3882.211,799.262c4.539-9.269,10.014-18.227,17.436-25.491c-2.17,6.848-4.354,13.722-5.482,20.84
		c-3.859,23.577-1.933,47.538-2.46,71.3c-0.416,14.579-1.702,29.172-4.466,43.5c-1.234,6.571-3.351,12.937-5.983,19.072
		c-0.152-0.059-0.448-0.178-0.594-0.238c2.256-12.27,4.031-24.785,2.982-37.286c-1.029-13.286-4.638-26.243-5.304-39.568
		c-0.455-7.527,0.455-15.021,1.029-22.509c-2.151,10.944-4.486,21.902-5.271,33.051c-0.567,7.738,0.257,15.496,1.636,23.109
		c0.943,5.588,2.025,11.353,0.976,17c-0.851-11.683-7.586-21.645-14.276-30.827c4.176,9.176,8.965,18.287,10.608,28.347
		c1.161,7.309,1.042,14.784,0.363,22.139c-0.884-4.77-1.636-9.579-3.048-14.23c-3.114-10.865-9.328-20.431-14.566-30.339
		c-4.07-7.481-7.204-15.503-8.945-23.848c-0.825,5.535-1.089,11.175-0.587,16.756c0.614,6.538,3.239,12.613,5.587,18.676
		c-5.799-6.307-11.518-12.844-15.694-20.365c-2.606-4.723-4.044-9.942-5.647-15.054c-1.023,6.755-2.335,13.675-1.102,20.503
		c0.963,5.667,3.628,10.826,5.997,16.004c-4.446-4.816-8.385-10.212-10.951-16.261c-2.612-6.254-4.156-12.871-5.739-19.435
		c4.103-4.816,7.698-10.027,11.749-14.883c1.643-1.893,4.374-4.4,6.927-2.48c4.262,3.411,6.934,8.682,12.007,11.122
		c2.342,1.3,5.409,1.082,7.428-0.732c3.53-3.008,5.693-7.224,7.91-11.215C3870.976,823.908,3876.148,811.374,3882.211,799.262z"/>
	<path fill="#434242" d="M4441.327,870.924c0.943-2.797,2.454-5.423,4.367-7.666
		C4444.534,865.963,4443.135,868.589,4441.327,870.924z"/>
	<path fill="#434242" d="M3426.845,871.208c2.355,8.075,3.628,16.822,8.602,23.841c8.174,9.599,16.644,18.999,26.051,27.417
		c14.408,12.897,30.847,23.234,47.465,33.018c19.976,11.604,40.419,22.39,61.167,32.543c23.07,11.241,46.667,21.598,71.3,28.934
		c19.092,5.647,38.724,10.126,58.706,10.549c15.179,0.389,30.537-1.451,44.885-6.571c17.291-6.161,32.925-16.096,47.702-26.836
		c8.668-6.247,17.013-12.943,25.827-18.999c5.41-3.648,11.419-7.197,18.161-7.118c8.339,0.119,16.38,2.652,24.376,4.776
		c-4.44,4.229-8.728,8.807-11.347,14.427c-4.704,10.304-6.016,21.711-8.048,32.747c-3.483-15.081-7.56-30.352-6.696-45.974
		c-4.737,8.682-4.552,18.88-4.176,28.479c0.073,4.018,0.91,7.969,1.141,11.98c-2.104-5.284-4.321-10.575-5.515-16.162
		c-1.339-6.234-1.432-12.653-1.333-18.999c-1.577,5.337-2.322,10.951-1.926,16.519c0.158,3.298,0.871,6.551,0.891,9.862
		c-2.329-6.861-4.625-13.86-4.842-21.169c-1.649,7.857-1.821,15.905-1.537,23.901c0.277,9.157-0.389,18.386-2.54,27.305
		c-0.37-9.546-0.442-19.355-3.859-28.42c-1.992-5.363-4.506-10.535-7.408-15.457c2.335,7.883,3.701,16.334,1.84,24.468
		c-1.174,4.895-3.107,9.599-5.35,14.098c0.739-7.197,2.784-14.309,2.329-21.605c-0.238-3.674-1.24-7.27-2.771-10.601
		c-0.099,5.231,0.132,10.476-0.125,15.707c-2.56-4.182-3.246-9.117-4.189-13.834c-1.319,4.169-2.269,8.523-2.012,12.93
		c0.376,6.98,2.071,13.794,3.061,20.695c-1.102-1.174-1.63-2.718-2.263-4.15c-1.999-4.644-4.024-9.354-4.849-14.375
		c-0.495-2.797-0.383-5.64-0.752-8.438c-2.316,5.634-1.636,11.808-1.392,17.733c-1.841-2.916-2.863-6.412-5.489-8.774
		c-1.94-1.794-4.598-2.408-7.065-3.101c2.408,4.427,2.289,9.605,1.346,14.427c-0.679,3.747-1.319,7.521-2.395,11.188
		c-0.191-4.163-0.218-8.391-1.418-12.409c-0.851-2.856-2.415-5.423-4.196-7.771c0.323,4.704,1.102,9.5,0.046,14.17
		c-0.726,3.279-3.173,5.733-5.126,8.339c0.363-3.378,1.055-6.762,0.699-10.166c-0.356-3.2-1.676-6.195-3.239-8.978
		c-0.554,4.803-0.402,9.645-0.574,14.474c-1.979-4.862-3.094-10.021-3.477-15.246c-3.081,10.357-2.322,21.249-2.401,31.896
		c-2.645-7.784-5.812-15.608-6.036-23.94c-3.595,8.629-3.978,18.115-6.947,26.922c-1.234-8.345-2.58-16.789-1.927-25.246
		c-1.867,4.624-3.49,9.407-4.09,14.388c-0.462,2.969-0.369,5.99-0.904,8.952c-1.854-6.313-3.008-12.805-3.292-19.375
		c-2.975,5.805-6.887,11.333-12.356,15.048c-4.961,3.378-10.318,6.195-15.853,8.517c2.744-2.5,5.865-4.611,8.213-7.521
		c4.011-4.737,5.469-10.958,6.828-16.862c-1.088,1.92-2.058,3.912-3.298,5.739c-2.428,3.622-5.858,6.425-9.302,9.038
		c1.253-2.434,3.001-4.631,3.806-7.276c0.627-2.085,0.482-4.295,0.396-6.432c-7.388,6.425-14.282,13.379-21.295,20.206
		c2.692-6.122,6.544-11.65,10.687-16.875c-5.772,3.477-10.944,7.811-16.208,11.993c2.929-5.66,6.729-10.799,10.878-15.615
		c-6.716,2.995-13.187,6.636-18.887,11.314c-3.589,2.81-6.854,6.003-10.384,8.88c3.767-6.993,8.603-13.339,14.197-18.966
		c-6.161,3.602-11.973,7.903-16.505,13.471c2.217-5.324,4.835-10.529,8.523-14.995c-5.693,3.134-11.373,6.61-15.694,11.551
		c-3.417,3.806-5.858,8.319-8.655,12.567c1.32-5.753,2.863-11.479,4.935-17.007c1.735-4.664,4.459-8.866,7.382-12.864
		c-4.572,3.477-8.992,7.342-12.132,12.211c-1.26,1.906-2.309,3.945-3.542,5.878c1.365-7.283,3.041-14.889,8.035-20.648
		c-4.565,2.263-9.361,4.44-12.917,8.213c-2.17,2.23-3.661,4.981-5.475,7.487c1.036-4.116,2.177-8.286,4.281-12
		c1.359-2.434,3.516-4.235,5.462-6.168c-5.904,3.246-11.116,7.666-15.213,13.022c-2.48,2.791-4.248,6.181-6.973,8.748
		c3.068-8.259,6.399-16.473,10.997-24.019c-5.192,3.298-10.555,6.544-14.744,11.116c-1.695,1.801-2.975,3.945-4.592,5.812
		c1.86-4.803,4.268-9.42,7.25-13.629c-5.357,3.82-9.612,8.886-13.741,13.953c0.416-5.258,0.772-10.582,2.282-15.661
		c0.917-3.16,2.791-5.891,4.506-8.649c-5.066,3.582-10.489,6.742-16.387,8.747c-6.716,2.296-13.57,4.176-20.503,5.673
		c3.754-2.243,7.883-3.773,11.611-6.069c4.248-2.388,7.804-5.825,10.654-9.75c-2.553,1.59-4.974,3.411-7.666,4.796
		c-4.077,2.144-8.563,3.358-13.049,4.288c3.694-2.896,7.85-5.35,10.786-9.097c2.012-2.546,3.041-5.667,3.965-8.728
		c-8.662,3.609-17.594,7.336-24.501,13.893c-3.008,2.652-5.41,5.884-8.292,8.662c5.185-9.058,11.683-18.188,21.612-22.41
		c-10.239,2.79-18.406,9.862-26.605,16.242c2.5-4.182,5.462-8.075,8.543-11.835c3.087-3.773,6.993-6.722,10.865-9.632
		c-5.818,2.283-11.683,4.651-16.842,8.233c-2.164,1.458-4.116,3.213-6.353,4.565c4.308-6.867,9.236-13.458,15.655-18.498
		c-9.77,1.451-19.256,4.314-28.921,6.247c4.308-1.504,8.761-2.837,12.646-5.291c2.355-1.478,4.13-3.661,5.719-5.891
		c-7.105-1.089-13.867,1.966-20.259,4.638c-5.469,2.289-10.549,5.35-15.377,8.767c4.004-4.697,8.464-9.044,13.345-12.824
		c3.028-2.381,6.551-3.971,9.843-5.924c-5.08,0.811-10.192,1.972-14.863,4.189c-3.364,1.564-6.049,4.15-8.926,6.432
		c3.826-5.403,8.352-10.482,14.111-13.873c-5.845,1.801-11.241,4.816-16.096,8.517c3.648-4.796,7.87-9.374,13.365-12.046
		c-8.51,0.581-17.033,1.986-25.029,5.053c-5.014,1.781-9.783,4.169-14.718,6.135c9.203-6.65,19.111-12.64,30.01-16.07
		c-9.203,0.706-17.858,4.229-26.157,8.048c6.392-5.937,14.249-9.889,22.238-13.2c-6.109,0.864-12.409,1.649-17.983,4.473
		c-2.448,1.201-4.565,2.956-6.933,4.288c4.097-5,8.668-9.585,12.93-14.447c-6.762,1.3-12.937,4.519-18.992,7.666
		c-6.524,3.345-12.772,7.197-19.323,10.469c9.909-8.589,20.325-16.624,30.887-24.409c-7.006,2.045-14.084,4.103-20.503,7.652
		c-4.301,2.289-8.233,5.185-12.336,7.798c5.97-7.131,12.495-14.296,21.176-18.115c-10.14-0.627-20.279,0.858-30.208,2.81
		c-0.046-0.152-0.138-0.462-0.185-0.614c5.165-2.078,10.265-4.473,15.753-5.561c2.104-0.435,4.261-0.594,6.346-1.141
		c-8.015-0.798-16.129-0.99-24.138,0c-3.8,0.376-7.54,1.227-11.34,1.563c9.229-2.804,18.63-5.04,28.136-6.709
		c-5.258-1.201-10.694-1.913-16.07-1.273c-3.18,0.31-6.287,1.075-9.453,1.458c6.881-2.85,14.302-3.859,21.704-4.031
		c-5.99-2.131-12.112-4.037-18.432-4.855c-7.27-0.917-14.573,0.073-21.796,0.91c8.609-2.771,17.515-5,26.592-5.311
		c1.029-0.046,2.058-0.152,3.021-0.528c-7.257-3.153-15.305-1.596-22.944-1.821c5.614-2.085,11.558-3.503,17.568-3.582
		c-4.895-3.82-10.146-7.435-16.176-9.19c-3.727-1.161-7.613-1.629-11.433-2.349c7.27-1.023,14.48,0.91,21.717,1.154
		c-6.67-3.635-13.649-6.821-20.932-9.018c-5.449-1.596-11.142-1.946-16.776-2.395c6.227-2.177,12.706-3.668,19.21-4.763
		C3428.283,887.991,3426.568,879.401,3426.845,871.208z"/>
	<path fill="#434242" d="M4429.875,892.444c1.333-2.401,2.401-4.968,4.083-7.151c-1.326,4.407-3.391,8.556-4.921,12.904
		c-5.284,13.609-9.842,27.476-14.836,41.191c-3.622,9.988-10.232,18.471-17.277,26.269c-13.57,15.1-27.588,30.009-38.341,47.333
		c-12.244,19.712-20.127,41.686-27.667,63.522c0.053-2.81,1.174-5.436,1.84-8.121c5.997-21.341,12.561-42.939,24.66-61.734
		c6.715-10.615,14.731-20.332,23.036-29.732c7.112-8.114,14.487-16.096,20.213-25.286c5.211-8.365,9.156-17.422,13.273-26.348
		C4418.957,914.2,4424.143,903.183,4429.875,892.444z"/>
	<path fill="#434242" d="M4453.776,893.697c4.07,5.284,7.395,11.208,9.09,17.7c3.219,12.119,4.684,24.758,9.638,36.369
		c1.821,4.809,4.572,9.157,6.914,13.702c-2.592-2.883-4.374-6.353-6.472-9.579c-5.488-9.005-10.555-18.28-14.731-27.971
		c4.13,11.894,8.774,23.762,15.734,34.33c3.048,4.855,6.735,9.269,9.968,13.999c-12.626-12.257-20.978-28.037-29.726-43.118
		c3.292,8.404,7.065,16.631,11.419,24.534c-2.659-2.652-4.341-6.063-6.069-9.348c-3.411-6.815-5.931-14.018-9.137-20.926
		c-0.772,12.165-2.791,24.646-8.958,35.34c-2.929,4.968-6.643,9.777-11.829,12.514c-4.249,2.17-9.308,2.936-13.939,1.728
		c-2.243-0.541-4.043-2.447-4.321-4.743c-0.62-4.169,0.567-8.312,1.623-12.303c2.401-8.187,5.376-16.222,9.044-23.927
		c2.428-4.928,5.178-10.001,9.704-13.319c4.136-3.127,9.545-3.18,14.493-3.021c-1.484-1.319-3.206-2.665-5.304-2.553
		c-4.215,0.152-7.844,2.546-11.644,4.07c2.361-4.354,6.042-7.771,9.321-11.426C4443.135,901.165,4447.542,895.966,4453.776,893.697z
		"/>
	<path fill="#434242" d="M3980.703,902.616c3.523,4.209,6.458,8.893,10.14,12.983c8.107,9.612,18.887,16.314,28.479,24.283
		c14.982,12.481,23.65,30.907,28.169,49.55c5.007,19.949,6.716,40.617,5.858,61.14c-5.099-8.418-10.41-16.783-17.027-24.112
		c-7.903-8.853-17.099-16.4-25.966-24.237c-7.204-6.386-14.606-12.745-20.18-20.668c-2.804-4.004-5.106-8.352-6.94-12.871
		c3.147,3.246,5.95,6.808,9.144,10.021c8.662,9.091,18.986,16.367,29.448,23.228c5.021,3.213,10.054,6.439,15.404,9.077
		c-7.646-5.667-15.232-11.551-21.48-18.795c-4.829-5.607-9.632-11.38-13.009-17.996c2.896,3.041,5.363,6.511,8.642,9.19
		c5.627,4.981,12.297,8.629,19.336,11.202c-3.582-6.326-5.917-13.286-9.849-19.415c-7.784-12.046-19.171-21.057-29.33-30.973
		c9.163,5.39,17.759,11.795,25.589,18.986c4.433,4.011,8.015,8.814,11.558,13.59c-3.49-9.348-10.436-16.776-17.805-23.261
		c-2.019-1.841-4.156-3.556-6.023-5.555c7.507,3.312,14.164,8.174,20.358,13.504c-3.708-8.424-8.919-16.169-15.351-22.753
		c-6.036-6.267-12.791-11.802-18.682-18.214C3986.396,915.434,3982.867,909.239,3980.703,902.616z"/>
	<path fill="#434242" d="M3931.734,923.792c3.51,4.314,6.313,9.157,9.559,13.669c12.554,18.287,25.398,36.382,39.139,53.791
		c6.551,8.319,13.563,16.321,21.572,23.274c9.843,8.609,20.174,16.888,28.044,27.437c10.423,13.346,15.338,29.904,18.973,46.178
		c0.653,3.813,2.104,7.56,1.874,11.479c-2.454-10.581-5.462-21.104-10.027-30.986c-5.238-11.373-12.237-22.054-21.282-30.768
		c-7.514-7.23-15.905-13.491-23.228-20.926c-12.185-12.349-21.829-26.863-31.659-41.066c0.864,2.236,1.88,4.44,2.401,6.801
		c1.405,6.214,0.231,12.831-2.335,18.584c-1.029,2.316-3.912,2.17-6.016,1.9c-5.667-0.811-11.307-2.256-16.505-4.684
		c-5.146-2.401-8.266-7.408-10.984-12.152c-3.318-6.003-6.129-12.811-5.08-19.804c0.831-5.126,2.764-10.232,6.148-14.223
		c2.415-2.949,6.669-2.078,9.863-1.148c6.181,2.184,10.245,7.639,14.447,12.356c-7.019-10.971-14.032-21.935-20.926-32.978
		C3934.36,928.298,3932.783,926.187,3931.734,923.792z"/>
	<path fill="#434242" d="M3921.615,947.442c3.971-1.042,8.101-0.231,11.987,0.825c-3.378,3.839-6.584,7.956-8.398,12.798
		c-4.209,10.964-4.802,22.977-3.767,34.575c0.165,3.892,1.128,7.745,0.95,11.65c-2.691-7.936-4.763-16.149-5.416-24.527
		c-0.627-8.431-0.013-16.875,0.488-25.299c-2.685,8.853-4.895,17.871-8.246,26.513c-2.045,5.179-4.044,10.397-6.577,15.358
		c2.546-10.621,7.23-20.958,7.059-32.074c-4.44,11.723-8.569,23.676-15.048,34.482c-3.12,5.093-6.122,10.318-9.942,14.929
		c7.356-16.354,16.723-32.127,20.345-49.899c1.016-4.532,1.563-9.592,4.961-13.082
		C3913.177,950.556,3917.34,948.557,3921.615,947.442z"/>
	<path fill="#434242" d="M4402.57,970.624c1.682-2.883,3.206-5.858,5.06-8.642c0.271,3.364,0.072,6.973,1.728,10.041
		c1.729,2.955,5.357,4.018,8.583,4.222c5.878,0.271,11.551-2.243,16.228-5.647c3.18-2.276,5.43-5.502,7.897-8.47
		c1.102,2.454,1.702,5.245,0.673,7.85c-2.362,7.402-8.51,12.666-14.625,17.033c-7.527,5.284-15.12,10.509-23.056,15.18
		c-4.631,2.599-9.493,5.31-14.896,5.739c-2.025,0.185-4.79-0.515-5.066-2.896c-0.218-3.49,1.702-6.63,3.193-9.651
		C4392.899,987.044,4397.913,978.943,4402.57,970.624z"/>
	<path fill="#434242" d="M4480.823,963.624c1.372,1.181,2.494,2.665,3.826,3.912c-0.257,0.264-0.495,0.528-0.719,0.805
		C4483.007,966.699,4481.799,965.214,4480.823,963.624z"/>
	<path fill="#434242" d="M4484.959,969.403c0.231-0.277,0.481-0.541,0.746-0.798c1.596,2.843,4.512,4.578,6.346,7.25
		C4489.313,974.133,4487.374,971.488,4484.959,969.403z"/>
	<path fill="#434242" d="M3924.484,980.308c3.714,6.544,6.604,13.84,12.277,19.026c5.542,4.901,12.897,7.079,20.015,8.497
		c3.78,0.574,8.18,1.3,11.472-1.148c3.496-2.962,3.344-7.989,5.363-11.782c1.042-0.943,1.827,0.653,2.52,1.3
		c3.839,5.311,7.092,11.03,10.417,16.677c1.788,3.259,3.879,6.425,4.961,10.014c0.673,1.926-0.125,4.09-1.808,5.205
		c-3.569,2.52-8.226,2.81-12.435,2.309c-6.379-0.943-12.376-3.457-18.313-5.851c-7.534-3.16-15.153-6.148-22.41-9.902
		c-4.44-2.322-8.998-5.377-10.826-10.271C3922.822,996.701,3923.824,988.29,3924.484,980.308z"/>
	<path fill="#434242" d="M4381.513,991.219c1.352-1.821,2.612-3.721,4.242-5.317c-3.397,6.683-7.778,13.029-9.44,20.457
		c-1.959,7.877,0.442,15.866,2.494,23.459c-1.992-2.527-3.708-5.245-5.746-7.718c2.197,5.033,4.591,10.06,5.587,15.509
		c0.765,4.347,1.161,8.781,1.016,13.2c-1.537-4.262-2.454-8.781-4.783-12.712c-2.025-3.569-4.499-6.854-7.118-9.994
		c4.38,9.902,9.137,19.83,10.838,30.63c0.726,4.75,1.484,9.539,1.432,14.368c-2.672-10.746-5.614-21.717-11.809-31.052
		c-1.603-2.461-3.325-4.842-5.053-7.204c1.471,3.905,3.431,7.606,4.836,11.545c4.987,13.128,6.854,27.166,8.18,41.073
		c1.068,12.231,1.326,24.725-1.438,36.765c-1.498-12.429-1.286-25.24-5.166-37.273c-1.233-3.734-2.949-7.283-4.862-10.7
		c2.507,15.76,5.251,31.56,5.634,47.557c0.225,12.844-0.732,25.708-2.329,38.447c0.185-19.25-2.632-38.5-8.009-56.964
		c-1.537-4.849-3.582-9.717-7.217-13.379c-0.818,13.227-1.715,26.52-0.653,39.766c0.693,8.457,2.125,16.835,3.826,25.147
		c0.291,1.352,0.416,2.738,0.469,4.136c-5.363-12.679-10.964-25.477-12.911-39.225c1.115,31.065,6.03,61.826,11.908,92.298
		c0.884,5.614,2.474,11.136,2.903,16.809c-4.282-12.594-8.233-25.326-10.971-38.354c-6.953-33.44-9.585-67.579-11.776-101.599
		c-0.132-2.467-0.626-5.014,0.264-7.395c6.406-21.236,13.84-42.366,24.93-61.662
		C4366.98,1011.162,4374.177,1001.121,4381.513,991.219z"/>
	<path fill="#434242" d="M4444.072,991.094c0.105,2.263-0.336,4.499-0.746,6.722c-4.816,27.602-9.599,55.236-16.248,82.475
		c-3.978,16.486-8.246,32.945-10.859,49.721c-4.07,26.309-4.433,52.987-4.901,79.546c-0.297,17.97-0.389,35.986-2.349,53.871
		c-2.421,24.171-9.829,47.458-17.983,70.224c-3.081,8.688-6.366,17.317-9.025,26.144c-1.854,6.102-3.127,12.468-2.698,18.874
		c0.383,5.456,1.307,11.07,4.051,15.885c1.346,2.448,3.608,4.169,5.957,5.607c-2.678,4.347-2.771,9.684-2.362,14.612
		c0.178,2.665,2.527,4.281,4.572,5.601c-4.077,3.087-5.726,10.133-1.438,13.755c-1.682,3.041-1.808,7.837,1.557,9.783
		c-1.372,8.55,1.273,17.185,0.25,25.781c-0.534-8.187-1.319-16.4-3.305-24.376c-1.168-4.822-2.811-9.506-4.031-14.309
		c-2.157-8.345-1.788-17.047-3.127-25.51c-1.557-10.159-5.845-19.586-9.856-28.954c-4.103-9.302-8.246-18.63-13.438-27.384
		c-4.664-7.837-11.162-14.401-18.3-20.002c-9.994-7.857-20.714-14.79-31.942-20.741c-2.969-1.662-6.175-2.856-9.077-4.625
		c4.394,1.168,8.483,3.252,12.706,4.915c12.099,5.106,23.802,11.241,34.555,18.808c6.881,4.677,13.009,10.357,18.392,16.69
		c-4.994-11.254-10.317-22.502-17.766-32.371c-6.755-9.104-15.252-16.664-23.115-24.752c16.38,8.767,27.779,23.848,40.017,37.339
		c-3.694-8.728-8.127-17.211-14.157-24.567c-2.533-3.325-5.423-6.346-7.93-9.684c7.547,5.726,14.071,12.785,19.31,20.675
		c2.856,4.11,5.291,8.504,8.121,12.64c-1.392-11.921-3.101-24.191-8.992-34.845c-5.792-10.502-14.368-19.032-22.482-27.72
		c4.816,3.226,9.223,7.039,13.735,10.68c7.013,5.719,13.207,12.396,18.511,19.718c-2.197-6.768-5.04-13.405-8.972-19.355
		c-2.592-4.103-6.108-7.488-8.952-11.386c9.104,8.451,18.208,17.145,25.174,27.522c-3.134-12.231-6.386-24.442-8.82-36.837
		c-3.265-16.235-5.865-32.595-8.319-48.969c-1.002-7.534-2.447-15.021-3.094-22.588c3.668,15.635,7.164,31.322,11.314,46.845
		c3.173,12.138,7.217,24.079,12.877,35.3c-0.844-5.838-2.573-11.505-3.734-17.284c-3.015-13.642-6.069-27.305-7.791-41.185
		c-1.59-12.693-1.59-25.51-1.372-38.282c3.272,15.674,5.291,31.652,9.671,47.095c2.315,8.352,5.812,16.354,10.278,23.782
		c1.161-16.228,2.896-32.833-0.983-48.844c-1.874-8.174-5.251-15.872-8.266-23.663c4.064,5.205,7.514,10.911,10.482,16.816
		c3.055,6.095,4.269,12.844,5.977,19.382c-0.739-5.944-0.963-11.98-2.421-17.818c-1.121-5.113-3.272-9.895-5.02-14.803
		c3.8,5.469,6.419,11.657,9.896,17.33c-1.135-7.877-3.318-15.575-6.063-23.03c-6.861-18.307-7.646-38.051-8.847-57.347
		c-0.145-4.539-0.732-9.084-0.481-13.623c1.458,5.31,1.814,10.872,2.856,16.288c1.557,9.5,3.101,19.006,5.152,28.42
		c1.531,6.841,3.358,13.788,7.171,19.771c1.082-7.026,1.234-14.236-0.105-21.236c-1.088-6.663-3.153-13.108-4.532-19.698
		c-0.105-8.147,0.125-16.294,0.231-24.442c0.165-4.776,0.046-9.585,0.792-14.315c1.201,2.876,1.213,6.063,1.675,9.11
		c2.091,17.086,2.731,34.581,8.358,51.001c0.422-8.642-0.152-17.31,0.073-25.966c-0.079-13.405,1.643-27.074-1.689-40.235
		c-2.25-9.018-6.722-17.225-10.733-25.53c2.797,3.147,5,6.762,7.448,10.186c4.578,6.808,9.124,13.86,11.221,21.882
		c1.095,3.912,1.465,7.969,2.019,11.987c1.979-7.059,2.698-14.487,1.88-21.783c-0.838-7.54-2.586-14.942-4.361-22.304
		c-0.587-2.52-1.471-4.994-1.557-7.593c3.061,9.572,6.933,19.052,7.679,29.178c0.581-8.873,0.152-17.937-2.335-26.52
		c-1.22-4.961-3.628-9.539-4.822-14.487c2.586,4.809,4.928,9.849,8.49,14.045c1.287,1.498,3.358,3.028,5.416,2.085
		c2.751-1.405,4.269-4.295,5.812-6.841c4.545-8.325,7.666-17.323,10.707-26.282C4440.8,1001.788,4442.581,996.484,4444.072,991.094z
		"/>
	<path fill="#434242" d="M4467.068,996.332c0.198,16.987,0.073,33.994,0.977,50.968c1.167,26.572,4.809,52.967,9.75,79.077
		c5.66,30.834,12.151,61.536,16.327,92.621c4.888,36.356,6.524,73.041,7.672,109.667c0.04,4.077,0.501,8.154,0.218,12.231
		c-2.685-33.281-5.462-66.576-9.73-99.699c-3.477-27.298-8.8-54.326-15.226-81.076c-5.713-24.692-13.016-49.114-15.991-74.354
		c-3.285-27.608,0.884-55.335,4.888-82.633C4466.29,1000.857,4466.581,998.575,4467.068,996.332z"/>
	<path fill="#434242" d="M4485.777,1105.313c-5.159-29.376-6.346-59.405-4.222-89.131c-0.046,14.79,0.64,29.614,2.54,44.292
		c3.134,24.897,10.806,48.883,15.951,73.384c6.221,28.09,9.968,56.694,11.809,85.397c2.929,44.417,3.219,88.953,3.549,133.456
		c-0.02,6.439,0.231,12.897-0.237,19.329c-1.142-30.715-2.626-61.431-4.618-92.106c-2.065-30.821-4.822-61.635-9.71-92.153
		C4496.557,1160.16,4490.547,1132.849,4485.777,1105.313z"/>
	<path fill="#434242" d="M3996.272,1022.68c6.821,7.547,13.484,15.239,20.009,23.043c7.731,9.288,14.909,19.164,20.081,30.128
		c5.515,11.67,9.348,24.125,11.531,36.837c1.887,11.03,1.992,22.522-1.049,33.367c-3.529,12.864-10.746,24.277-18.142,35.228
		c-8.728,12.752-17.68,25.405-24.91,39.1c-2.652,4.572-4.677,9.5-7.573,13.913c3.463-10.205,7.573-20.2,11.888-30.082
		c4.42-10.166,10.001-19.751,15.503-29.35c3.839-6.808,7.586-13.761,9.717-21.321c2.448-8.405,3.081-17.185,3.595-25.886
		c-3.754,10.529-7.27,21.17-12.033,31.296c-5.185,11.254-12,21.645-18.933,31.883c-1.359,1.986-2.599,4.077-4.281,5.818
		c4.321-9.176,8.992-18.188,12.983-27.516c5.574-12.699,10.001-25.906,13.2-39.397c2.784-11.228,4.242-22.878,2.942-34.429
		c-3.575,13.121-5.291,26.737-9.618,39.667c-2.685,8.193-7.369,15.608-12.91,22.159c3.727-11.202,8.385-22.086,11.584-33.46
		c4.611-16.189,3.892-33.275,2.711-49.879c-2.045,7.224-4.209,14.467-7.606,21.189c-3.747,7.422-8.556,14.223-13.128,21.143
		c-7.177,10.713-14.025,21.631-20.873,32.549c-1.267,1.979-2.395,4.064-3.885,5.885c8.55-22.172,22.852-41.515,32.153-63.344
		c3.8-8.418,5.95-17.561,5.911-26.817c-3.833,9.783-7.118,19.844-12.244,29.066c-2.949,5.311-6.524,10.239-9.638,15.457
		c-4.189,6.999-7.692,14.381-11.353,21.664c0.719-5.383,2.388-10.614,4.156-15.74c2.929-8.358,8.635-15.312,12.297-23.32
		c2.573-5.469,3.984-11.393,4.974-17.324c0.904-6.135,1.86-12.303,2.019-18.511c-1.748,6.392-3.503,12.792-5.007,19.243
		c-1.306,5.522-2.731,11.057-5.014,16.268c-3.114,7.118-7.296,13.689-11.208,20.378c-1.425,2.355-2.665,4.822-4.328,7.026
		c3.556-10.792,7.738-21.4,12.587-31.685c4.037-8.695,5.594-18.267,6.504-27.734c1.016-10.318,0.851-20.82-1.445-30.966
		C3997.037,1026.374,3996.608,1024.541,3996.272,1022.68z"/>
	<path fill="#434242" d="M3912.59,1028.518c2.639,6.953,4.677,14.137,7.619,20.991c2.283,5.258,4.631,10.839,9.104,14.639
		c3.437,2.89,8.094,3.081,12.35,3.516c-3.45,1.497-7.276,2.533-9.988,5.304c-3.655,3.694-5.475,8.708-7.408,13.425
		c8.728-6.049,19.395-8.761,27.542-15.694c3.153-2.546,5.759-5.66,8.715-8.411c-1.517,4.407-3.608,8.873-7.375,11.809
		c-6.353,5.099-14.817,7.784-19.382,14.916c-4.308,6.94-5.449,15.219-7.184,23.056c4.235-3.971,8.563-8.015,13.906-10.463
		c9.005-4.255,16.565-10.845,24.415-16.849c-0.475,4.268-2.599,8.226-5.845,11.023c-4.75,4.354-10.41,7.567-15.114,11.967
		c-3.516,3.292-6.821,6.834-9.73,10.674c4.057-3.958,8.53-7.514,13.53-10.212c6.135-3.338,12.422-6.63,17.521-11.498
		c4.585-4.051,8.174-9.058,12.501-13.352c-4.38,8.213-9.44,16.426-17.027,22.073c-6.802,5.37-14.916,8.978-21.071,15.173
		c-6.023,6.161-9.618,14.144-13.28,21.816c3.457-3.384,6.564-7.177,10.549-9.994c6.65-4.73,14.137-8.141,20.741-12.956
		c4.024-2.797,7.507-6.26,11.327-9.308c-2.527,3.839-5.33,7.527-8.556,10.812c-5.007,5.113-11.815,7.831-17.238,12.416
		c-3.635,3.081-7.158,6.34-10.239,9.988c4.11-3.859,9.486-5.759,14.757-7.428c7.956-2.513,15.1-6.973,21.862-11.776l0.356,0.27
		c-2.731,3.417-5.858,6.571-9.605,8.873c-6.452,4.011-13.682,7.131-18.847,12.89c-3.417,3.833-6.353,8.127-8.668,12.706
		c3.219-2.837,6.307-5.845,9.928-8.173c5.68-3.708,12.073-6.208,17.568-10.206c7.408-5.251,12.699-12.745,18.386-19.672
		c-1.854,5.621-4.09,11.202-7.389,16.149c-3.279,4.921-8.385,8.094-13.194,11.32c-6.966,4.539-12.692,10.72-17.706,17.284
		c3.575-2.309,6.742-5.192,10.39-7.402c4.38-2.764,9.13-4.974,14.091-6.485c-3.714,2.527-7.91,4.295-11.505,7.019
		c-5.607,4.044-10.595,8.899-15.245,13.999c3.813-2.131,7.224-4.895,10.971-7.131c6.933-4.499,14.751-7.732,20.82-13.464
		c4.057-3.727,7.171-8.306,10.654-12.534c-2.48,6.703-5.627,13.385-10.634,18.597c-6.346,6.452-14.896,9.988-21.862,15.641
		c-5.264,4.275-9.282,9.843-12.897,15.523c10.113-3.622,20.292-7.29,29.693-12.554c8.781-4.908,15.912-12.244,22.047-20.121
		c7.197-9.229,13.649-19.006,20.094-28.763c1.359-2.025,2.553-4.176,4.169-6.016c-4.169,9.552-8.906,18.874-13.781,28.09
		c-5,9.137-10.443,18.26-18.102,25.458c-5.766,5.574-12.679,9.711-18.993,14.606c-7.659,6.082-14.757,12.864-21.466,19.969
		c12.211-5.693,23.551-12.996,35.188-19.718c-6.65,8.134-16.815,11.94-24.949,18.273c-5.06,3.582-8.827,8.682-11.485,14.236
		c3.002-2.711,5.805-5.654,9.011-8.141c6.788-5.376,14.302-9.77,21.011-15.259c3.951-3.087,7.534-6.617,11.459-9.73
		c-2.876,4.704-6.115,9.216-9.862,13.266c-7.336,7.969-17.647,12.554-24.514,20.998c-4.156,5.172-7.21,11.142-9.783,17.231
		c11.406-16.703,29.99-26.203,43.731-40.644c8.787-9.15,15.589-19.916,23.003-30.141c-4.163,9.321-8.688,18.518-13.9,27.305
		c-3.899,6.643-9.117,12.422-15.061,17.297c-6.636,5.469-12.686,11.71-17.456,18.894c-5.113,7.659-9.051,16.017-13.029,24.303
		c8.305-6.874,16.868-13.418,25.537-19.811c7.283-5.396,13.695-11.934,18.867-19.382c2.856-3.78,5.159-7.956,8.101-11.663
		c-3.945,10.977-8.167,22.443-16.684,30.788c-7.184,7.085-15.272,13.313-21.565,21.275c-7.949,9.566-12.013,21.559-15.569,33.288
		c6.663-9.427,13.497-18.933,22.39-26.408c8.009-6.933,17.225-12.231,25.774-18.425c7.738-5.574,14.236-12.646,20.299-19.962
		c0.831-1.049,1.761-2.005,2.784-2.863c-3.371,5.667-7.316,10.977-10.911,16.505c-1.491,2.025-2.566,4.433-4.565,6.043
		c-8.82,6.663-17.904,13.174-25.345,21.427c-5.74,6.34-10.014,14.104-11.631,22.548c-1.187,5.555-1.398,11.241-1.92,16.881
		c5.39-12.257,14.738-22.984,26.718-29.112c-6.465,6.65-13.464,13.088-17.779,21.44c-3.114,5.957-4.796,12.508-6.485,18.973
		c8.8-13.887,19.619-26.724,33.018-36.375c-6.063,7.455-12.798,14.434-17.904,22.641c-5.97,9.381-10.139,19.771-13.939,30.188
		c2.995-6.636,5.99-13.365,10.397-19.21c6.254-8.266,14.817-14.295,22.852-20.668c5.621-4.295,11.07-8.82,16.815-12.943
		c-5.759,8.035-11.677,15.984-18.095,23.511c-3.952,4.631-8.339,8.873-12.224,13.563c-3.226,3.859-5.442,8.444-6.979,13.207
		c3.067-3.035,5.746-6.445,8.919-9.374c6.076-5.964,13.629-10.126,21.315-13.629c-4.763,4.255-10.106,7.883-14.454,12.62
		c-7.6,7.745-11.696,18.036-15.338,28.057c4.559-7.877,9.691-15.503,16.209-21.908c8.444-8.484,17.422-16.552,24.541-26.236
		c4.796-6.089,8.675-12.838,13.306-19.026c-4.486,9.889-9.698,19.481-15.674,28.558c-7.527,11.294-17.046,21.255-23.248,33.42
		c-3.444,6.815-6.26,13.953-8.55,21.235c4.723-9.13,9.394-18.366,15.707-26.526c12.983-17.159,26.869-33.638,39.054-51.39
		c3.094-4.202,5.74-8.741,9.064-12.765c-4.479,8.747-9.539,17.198-14.546,25.655c-5.66,9.44-11.927,18.491-17.574,27.931
		c-3.463,5.838-6.716,11.848-8.886,18.307c-2.777,8.16-3.82,16.802-4.334,25.378c6.65-15.305,12.237-31.711,23.927-44.068
		c-7.501,16.446-16.387,32.536-20.312,50.341c-0.607,3.213-1.702,6.399-1.557,9.704c3.437-9.348,7.039-18.656,11.485-27.582
		c5.832-11.822,12.844-23.004,19.936-34.106c3.279-4.842,6.122-10.014,9.777-14.579c-10.615,20.556-22.403,40.769-29.198,63.014
		c-4.585,14.87-5.258,30.544-5.185,45.994c3.576-9.612,6.907-19.323,11.156-28.664c5.317-12.039,11.973-23.419,18.946-34.561
		c4.743-7.408,9.341-14.935,14.441-22.106c-4.268,9.242-8.958,18.3-12.838,27.72c-8.833,20.516-13.629,42.484-17.482,64.393
		c7.072-20.451,14.75-40.842,25.609-59.63c6.676-11.571,14.606-22.548,24.521-31.566c7.613-7.013,16.413-12.626,25.649-17.244
		c7.237-3.529,14.546-6.993,22.119-9.737c-3.43,2.296-7.29,3.853-10.865,5.911c-9.599,5.185-19.072,10.872-27.021,18.419
		c-7.6,7.125-13.623,15.734-18.834,24.706c-6.498,11.195-12.073,22.898-17.416,34.68c-4.638,10.318-9.196,20.701-12.838,31.421
		c-4.829,13.563-6.287,27.991-7.098,42.273c-4.935-9.051-10.206-17.95-16.618-26.045c-14.441-18.445-29.231-36.666-42.214-56.193
		c-11.301-16.961-21.374-34.885-28.228-54.128c-9.374-25.999-13.26-53.574-15.47-81.004c-2.467-31.573-3.061-63.251-4.11-94.89
		c-0.976-32.899-2.87-65.758-5.317-98.578C3914.041,1048.085,3912.979,1038.315,3912.59,1028.518z"/>
	<path fill="#434242" d="M4636.333,1038.981c11.545,50.81,22.845,101.777,38.605,151.492c8.081,25.959,17.271,51.548,26.19,77.217
		c-12.046-15.358-21.236-32.859-27.549-51.318c-7.626-21.803-13.154-44.272-18.069-66.82
		c-7.388-34.489-12.937-69.327-18.518-104.139C4636.629,1043.282,4636.24,1041.138,4636.333,1038.981z"/>
	<path fill="#434242" d="M4520.345,1041.917c1.874,12.541,3.352,25.161,5.97,37.583c3.021,15.278,8.748,29.845,12.363,44.978
		c6.307,25.768,9.282,52.202,12.191,78.523c6.399,61.398,9.341,123.072,12.554,184.694c0.132,2.283,0.191,4.585-0.026,6.874
		c-3.028-23.393-6.3-46.759-8.391-70.264c-4.15-43.804-5.014-87.924-11.472-131.497c-2.349-15.549-5.838-30.9-9.935-46.066
		c-3.523-13.293-7.593-26.454-10.443-39.911C4518.617,1085.523,4518.795,1063.542,4520.345,1041.917z"/>
	<path fill="#434242" d="M4500.707,1045.505c2.005,5.06,3.206,10.41,4.868,15.602c8.583,29.04,16.921,58.185,23.182,87.832
		c5.627,26.506,9.176,53.428,11.222,80.443c4.229,52.822,1.464,105.973,6.834,158.735c4.539,45.011,14.13,89.296,23.669,133.456
		c0.785,3.978,1.894,7.896,2.448,11.927c-14.408-33.618-27.8-68.061-34.133-104.245c-4.631-25.688-6.63-51.786-7.527-77.85
		c-1.062-31.652-0.35-63.331-1.372-94.976c-0.501-15.635-1.504-31.276-3.675-46.772c-3.391-25.352-9.75-50.17-14.361-75.297
		c-3.015-16.604-5.245-33.341-7.197-50.097C4503.266,1071.352,4501.663,1058.449,4500.707,1045.505z"/>
	<path fill="#434242" d="M4582.542,1077.052c-0.04-6.491-0.772-13.016-0.225-19.487c4.512,29.719,7.844,59.603,11.815,89.402
		c3.279,24.099,7.296,48.105,12.468,71.874c7.62,35.478,17.172,70.501,26.243,105.623c-8.187-18.148-15.707-36.646-21.427-55.737
		c-6.821-22.568-11.564-45.704-15.714-68.892C4588.518,1159.27,4583.696,1118.25,4582.542,1077.052z"/>
	<path fill="#434242" d="M4447.99,1062.836c0.805,5.786,0.541,11.683,1.075,17.508c0.937,15.912,3.193,31.745,6.683,47.3
		c5.74,25.669,13.201,50.922,18.755,76.637c4.835,22.258,8.048,44.826,10.799,67.421c0.356,3.767,1.214,7.52,1.003,11.327
		c-6.188-27.628-12.376-55.269-19.428-82.699c-3.681-14.375-7.87-28.618-11.881-42.9c-3.734-13.458-7.349-27.028-8.886-40.947
		C4444.131,1098.617,4445.728,1080.595,4447.99,1062.836z"/>
	<path fill="#434242" d="M4628.588,1068.608c0.171-0.033,0.521-0.106,0.699-0.139c4.658,28.631,9.691,57.215,15.76,85.589
		c10.43,48.534,24.072,96.282,37.246,144.123c-6.34-9.407-11.05-19.797-15.305-30.273c-8.345-20.965-15.252-42.484-21.058-64.287
		c-5.891-22.053-10.159-44.542-12.613-67.242C4630.758,1113.87,4629.749,1091.222,4628.588,1068.608z"/>
	<path fill="#434242" d="M4543.256,1069.466c8.603,26.546,15.661,53.659,20.009,81.248c8.022,51.318,9.631,103.453,18.939,154.586
		c4.084,22.542,9.81,44.747,16.163,66.748c0.983,3.635,2.217,7.21,3.021,10.905c-10.034-17.211-17.877-35.749-22.878-55.051
		c-5.984-23.004-9.625-46.535-12.732-70.073c-4.413-33.578-6.623-67.381-9.592-101.098c-2.137-25.451-5.812-50.75-10.924-75.766
		C4544.622,1077.125,4543.408,1073.371,4543.256,1069.466z"/>
	<path fill="#434242" d="M4617.228,1096.097c0.053-3.839-0.429-7.705,0.158-11.512c5.39,34.647,10.872,69.281,16.294,103.922
		c0.667,3.892,1.029,7.85,2.157,11.657c3.886,14.375,7.837,28.75,11.333,43.23c0.857,3.971,2.025,7.93,2.091,12.026
		c-2.52-2.731-3.49-6.439-4.994-9.737c-7.923-20.233-14.196-41.112-18.86-62.321
		C4619.194,1154.711,4617.663,1125.322,4617.228,1096.097z"/>
	<path fill="#434242" d="M4597.767,1094.791c-0.343-2.936-1.273-5.838-1.029-8.807c6.162,27.377,12.158,54.794,18.801,82.059
		c11.881,49.061,24.765,97.865,37.458,146.722c0.145,0.805,0.264,1.623,0.363,2.467c-8.569-17.449-16.387-35.327-22.06-53.943
		c-6.465-21.064-11.103-42.636-15.45-64.228C4609.001,1164.455,4603.295,1129.63,4597.767,1094.791z"/>
	<path fill="#434242" d="M4561.781,1088.049c4.499,12.811,9.124,25.596,12.765,38.698c7.125,24.93,10.575,50.684,14.282,76.294
		c3.833,27.509,8.002,54.972,12.429,82.389c2.553,16.387,5.462,32.727,7.876,49.127c-9.545-22.04-17.02-45.057-21.374-68.714
		c-4.881-26.487-7.487-53.317-10.634-80.047c-3.133-28.406-7.507-56.668-13.108-84.691
		C4563.318,1096.744,4561.926,1092.476,4561.781,1088.049z"/>
	<path fill="#434242" d="M4687.096,1096.467c2.342,3.285,3.569,7.204,5.225,10.859c8.813,21.737,15.608,44.41,18.768,67.698
		c2.85,20.615,3.45,41.468,3.602,62.255c-0.046,5.146,0.251,10.318-0.237,15.457c-2.329-26.757-4.572-53.567-8.642-80.133
		c-3.206-21.638-8.451-42.933-15.008-63.786C4689.59,1104.687,4688.053,1100.656,4687.096,1096.467z"/>
	<path fill="#434242" d="M4675.888,1126.331c2.421,2.579,3.252,6.135,4.611,9.315c4.354,11.743,8.141,23.683,11.795,35.656
		c2.56,8.51,5.066,17.04,7.145,25.682c0.686,3.107,1.609,6.26,1.174,9.48c-2.989-2.151-4.367-5.726-6.221-8.761
		c-3.536-6.458-6.795-13.069-10.126-19.632c-0.686-1.293-1.095-2.705-1.306-4.13c-2.223-12.297-4.638-24.554-6.445-36.916
		C4676.06,1133.482,4675.36,1129.9,4675.888,1126.331z"/>
	<path fill="#434242" d="M4056.119,1134.742c2.368,4.374,3.866,9.156,5.937,13.682c5.456,13.049,11.762,25.761,16.347,39.166
		c6.485,18.551,8.906,38.183,11.089,57.618c0.93,7.725,0.594,15.707-2.032,23.096c-3.899,11.155-10.245,21.229-16.38,31.256
		c-5.521,8.576-10.852,17.31-16.888,25.53c4.057-8.662,8.82-16.994,12.831-25.688c5.838-12.396,11.386-25.002,15.325-38.15
		c2.098-6.887,2.87-14.111,2.56-21.295c-2.698,10.159-5.865,20.246-10.628,29.66c-4.783,9.955-11.195,19.092-18.683,27.199
		c5.964-11.175,12.554-22.073,17.205-33.895c5.548-13.326,6.373-27.912,6.854-42.161c-2.876,11.228-4.928,22.72-8.919,33.631
		c-3.292,8.84-8.668,16.75-14.54,24.052c3.879-9.684,8.477-19.098,11.604-29.079c2.989-9.322,4.75-18.979,6.247-28.631
		c-4.321,13.873-8.319,28.393-17.587,39.931c1.643-4.519,3.622-8.906,5.192-13.451c3.285-9.071,5.574-18.458,7.633-27.872
		c1.003-5.132,2.395-10.212,3.021-15.411c-2.005,4.024-3.279,8.372-5.172,12.455c-5.198,12.198-12.27,23.485-19.685,34.443
		c-6.544,9.486-13.266,18.913-20.932,27.529c11.611-20.695,24.013-41.105,32.734-63.258c3.608-8.985,5.97-18.425,7.501-27.978
		c-6.465,18.043-14.414,35.492-22.245,52.967c0.594-4.4,2.5-8.49,3.734-12.732c3.49-10.575,7.527-20.958,11.426-31.388l-0.323-0.099
		c-5.66,9.031-11.083,18.208-16.275,27.522c-6.775,12.079-15.569,23.07-25.992,32.18c5.825-8.306,12.092-16.327,17.357-25.022
		c6.887-11.221,12.62-23.142,17.291-35.445c2.56-7.184,5.126-14.441,6.485-21.955c-3.806,12.039-8.82,23.762-15.8,34.324
		c-4.018,6.03-7.943,12.165-12.58,17.739c4.605-9.236,9.717-18.234,13.847-27.707c5.924-13.392,10.469-27.516,12.191-42.102
		C4056.726,1148.543,4056.33,1141.623,4056.119,1134.742z"/>
	<path fill="#434242" d="M4427.902,1244.878c5.819,25.794,11.571,51.614,16.783,77.54c5.726,28.321,10.971,56.773,14.388,85.476
		c3.061,25.016,4.466,50.222,4.4,75.423c0.092,29.772-1.781,59.498-3.035,89.23c-0.792-12.778-0.475-25.609-0.864-38.407
		c-0.818-48.052-3.371-96.124-9.44-143.826c-5.489-44.14-12.844-88.023-20.305-131.866
		C4429.215,1253.922,4427.902,1249.463,4427.902,1244.878z"/>
	<path fill="#434242" d="M4463.988,1260.552c4.684,11.07,8.695,22.436,12.976,33.684c15.819,43.124,30.894,86.868,38.243,132.361
		c4.328,26.843,5.924,54.036,6.841,81.188c0.185,10.601,0.977,21.216,0.396,31.817c-1.319-25.807-3.424-51.614-7.197-77.191
		c-10.173-67.962-30.814-133.7-50.75-199.274C4464.251,1262.281,4464.087,1261.417,4463.988,1260.552z"/>
	<path fill="#434242" d="M4415.454,1269.333c4.156,30.59,8.24,61.213,10.529,92.008c3.49,42.774,3.285,85.727,2.447,128.6
		c-0.145,3.391,0.086,6.808-0.389,10.186c-1.346-29.785-2.256-59.603-3.661-89.395c-1.814-41.976-4.532-83.92-8.055-125.79
		C4416.055,1279.736,4415.078,1274.551,4415.454,1269.333z"/>
	<path fill="#434242" d="M4453.499,1272.038c3.998,10.951,7.375,22.139,10.984,33.235c7.527,23.815,14.408,47.867,19.659,72.302
		c10.086,46.634,13.207,94.455,14.229,142.058c0.475,25.946,0.422,51.905-0.792,77.831c-0.238,3.998-0.178,8.035-0.924,12
		c0.04-8.622-0.613-17.231-0.884-25.847c-2.25-51.291-4.532-102.635-10.041-153.702c-2.738-25.227-6.61-50.328-11.762-75.172
		c-5.297-25.761-11.974-51.212-19.065-76.531C4454.336,1276.174,4453.637,1274.155,4453.499,1272.038z"/>
	<path fill="#434242" d="M4447.04,1284.592c7.771,27.865,15.807,55.672,22.562,83.814c5.046,20.939,9.295,42.108,11.657,63.535
		c2.658,23.406,3.021,47.003,2.533,70.541c-0.528,25.53-1.92,51.034-3.358,76.531c-0.238,3.74-0.291,7.507-0.943,11.215
		c0.264-13.643-0.33-27.298-0.501-40.941c-0.607-27.931-1.59-55.856-3.688-83.715c-4.129-58.251-15.245-115.69-26.941-172.807
		C4447.838,1290.054,4447.047,1287.369,4447.04,1284.592z"/>
	<path fill="#434242" d="M4411.602,1298.511c0.613,15.655,1.907,31.276,2.725,46.924c1.874,32.74,3.655,65.507,3.714,98.307
		c0,24.428-1.108,48.93-5.119,73.061c-1.385,8.405-3.021,16.776-4.921,25.088c-0.547,0.119-1.643,0.35-2.19,0.462
		c3.813-23.887,6.162-47.999,7.283-72.164c2.527-51.687,0.963-103.453-1.267-155.12
		C4411.661,1309.554,4411.047,1304.026,4411.602,1298.511z"/>
	<path fill="#434242" d="M4403.923,1311.797c-0.119-3.991,0.178-7.982,0.468-11.96c0.218,15.437,1.141,30.86,1.577,46.297
		c1.102,32.978,1.907,66.002,0.581,98.987c-0.897,23.379-2.811,46.706-4.888,70.013c0.099-13.234,0.771-26.46,1.029-39.694
		C4404.259,1420.911,4404.187,1366.347,4403.923,1311.797z"/>
	<path fill="#434242" d="M4397.688,1334.108c0.977,15.206,0.93,30.458,1.253,45.69c0.231,19.566,0.238,39.159-1.055,58.699
		c-0.667,10.463-1.749,20.899-2.883,31.322c-0.601-3.397-0.073-6.841-0.046-10.258c1.029-34.713,1.669-69.446,2.434-104.165
		C4397.636,1348.298,4397.57,1341.2,4397.688,1334.108z"/>
	<path fill="#434242" d="M4320.94,1354.242l0.449-0.185c1.649,3.087,2.131,6.617,3.239,9.915c2.072,7.197,6.089,13.893,6.479,21.513
		c0.224,5.753-2.322,11.109-4.961,16.064c-2.969,5.376-6.017,10.713-8.906,16.136c-2.89,5.047-5.72,10.423-10.423,14.025
		c-4.116,3.101-9.434,3.272-14.302,4.136c-2.863,0.383-5.06,2.355-7.514,3.661c-1.669,0.957-3.45-0.304-4.473-1.59
		c-3.16-3.872-4.605-8.998-4.5-13.953c0.099-5.093,2.256-9.875,4.928-14.111c5.587-8.734,13.431-15.826,22.093-21.433
		c4.46-3.094,9.685-5.904,12.04-11.076c2.975-6.722,2.012-14.401,4.585-21.242C4319.99,1355.436,4320.155,1354.486,4320.94,1354.242
		z"/>
	<path fill="#434242" d="M4090.865,1374.092c0.897-1.669,3.048-3.675,4.948-2.157c3.358,2.949,5.04,7.276,7.573,10.891
		c6.274,10.258,16.426,17.093,25.398,24.758c4.558-3.43,10.68-2.513,15.958-1.854c11.789,2.091,23.208,5.917,35.049,7.778
		c16.367,2.764,33.295,1.887,49.372-2.184c15.496-3.773,29.534-11.538,44.041-17.878c3.82-1.524,7.824-3.167,12.026-2.837
		c1.682,0.119,3.522,1.194,3.635,3.068c0.185,2.533-1.208,4.836-2.494,6.92c-4.387,6.636-9.922,12.613-13.029,20.035
		c-2.25,5.231-2.362,11.36-0.086,16.604c3.146,7.448,9.928,12.778,17.231,15.859c8.853,3.754,19.27,4.209,28.149,0.303
		c8.576-3.767,15.72-10.166,21.744-17.225c6.056-7.085,10.746-15.371,13.279-24.369c-0.613,10.12-3.819,19.943-7.87,29.178
		c-5.634,12.396-12.792,24.006-19.646,35.749c-2.606,4.532-5.311,9.044-7.217,13.926c-1.378,3.516-2.111,7.547-0.699,11.175
		c1.775,4.684,5.924,8.009,10.318,10.146c7.441,3.575,15.865,4.209,24.006,4.209c12.462-0.185,25.253-1.695,36.508-7.408
		c-2.962,5.047-8.49,7.903-13.821,9.81c-10.951,3.457-22.68,4.229-33.255,8.919c-8.616,3.8-15.688,10.166-22.687,16.301
		c-9.064,8.022-18.551,15.727-29.277,21.433c-16.98,9.48-37.398,10.173-56.133,6.604c-4.882-0.871-9.651-2.395-14.592-2.896
		c-6.346-0.567-12.448,1.656-18.405,3.496c-8.768,2.883-17.812,5.39-27.101,5.508c-12.112,0.132-23.973-2.916-35.458-6.465
		c-14.15-4.624-28.703-9.869-39.911-20.022c-5.02-4.46-9.143-9.79-13.794-14.599c-3.041-3.206-6.993-5.561-11.36-6.346
		c-7.111-1.372-14.5-1.418-21.387-3.853c-5.924-1.979-10.931-6.016-15.008-10.654c-2.019-2.355-4.031-4.822-5.04-7.798
		c2.639,0.646,4.354,2.883,6.399,4.512c4.591,3.971,10.436,6.221,16.367,7.257c8.134,1.399,16.466,1.491,24.666,0.646
		c6.148-0.726,12.435-1.913,17.858-5.053c3.773-2.151,6.927-5.72,7.725-10.08c1.042-5.541-1.036-11.01-3.18-16.024
		c-4.367-9.737-9.935-18.894-14.111-28.717c-5.482-12.956-9.091-26.718-10.621-40.703c-0.323-4.446-0.95-9.064,0.31-13.412
		c0.726-2.282,2.606-0.033,3.14,1.188c4.492,8.741,7.903,18.049,13.26,26.335c5.363,8.398,11.802,16.552,20.556,21.605
		c8.662,4.915,19.104,5.667,28.782,4.123c3.833-0.745,8.161-2.124,10.173-5.766c1.735-3.186,0.712-6.867,0.132-10.205
		c-1.418,2.368-4.189,1.504-6.307,0.818c-6.293-2.065-12.923-2.889-19.138-5.218c-9.942-3.556-18.26-10.548-25.115-18.425
		c-6.788-7.969-12.369-17.33-14.395-27.707C4087.178,1386.943,4087.587,1379.891,4090.865,1374.092 M4228.438,1532.979
		c-12.726,0.62-25.464,0.752-38.164,1.761c-18.676,1.247-37.332,2.896-56.034,3.562c-5.917,0.363-11.901-0.026-17.766,0.897
		c1.695,1.972,4.13,3.021,6.274,4.433c5.766,3.622,11.657,7.078,17.943,9.73c13.082,5.594,27.536,7.098,41.646,6.854
		c12.574-0.172,25.048-3.147,37.642-1.893c8.107,0.739,16.195,2.072,24.369,1.841c13.016-0.336,26.19-3.556,37.233-10.628
		c7.699-5.007,14.678-11.208,20.358-18.438c0.699-1.168,2.104-2.514,1.524-3.945c-1.894-1.075-4.189-0.567-6.254-0.528
		C4274.287,1528.731,4251.421,1531.561,4228.438,1532.979z"/>
	<path fill="#434242" d="M4355.271,1529.014c9.249-3.252,18.563-6.406,27.971-9.13c1.781,1.306,2.982,3.226,4.631,4.697
		c2.902,2.823,6.617,4.545,9.849,6.933c-6.966-1.583-13.821-3.813-20.068-7.316c4.433,6.056,9.704,11.571,16.09,15.595
		c2.929,1.979,5.99,3.76,9.024,5.594c-6.715-2.025-13.405-4.321-19.665-7.507c-3.424-1.662-6.287-4.215-9.625-5.997
		c7.765,10.225,19.289,16.512,30.392,22.469c0.165-1.089,0.356-2.164,0.574-3.219c1.623,0.884,0.805,2.434,0.534,3.8
		c2.962,1.794,6.168,3.147,9.111,4.994c-3.286-0.726-6.32-2.243-9.467-3.371c-0.284,0.996-0.627,1.953-0.937,2.969
		c-0.6-1.056-0.323-2.289-0.416-3.404c-9.744-4.031-19.698-7.666-28.967-12.752c-3.424-1.814-6.643-3.958-9.981-5.884
		c5.218,6.861,12.554,11.657,20.075,15.668c5.944,3.213,12.006,6.194,18.108,9.097c0.086-0.587,0.271-1.768,0.356-2.362
		c0.224,0.02,0.673,0.059,0.904,0.079c-0.238,0.851-0.475,1.695-0.68,2.586c1.781,0.851,3.615,1.623,5.317,2.658
		c-1.913-0.323-3.734-0.976-5.548-1.603c-0.132,0.627-0.402,1.867-0.534,2.494c-0.105-0.937-0.171-1.88-0.211-2.784
		c-10.093-3.384-19.731-7.936-29.356-12.442c-3.899-1.768-6.729-5.225-10.615-7.019c1.695,2.797,4.011,5.146,6.109,7.639
		c8.068,9.269,16.571,18.155,25.345,26.75c3.094,3.186,6.505,6.069,9.388,9.453c-12.244-7.244-23.063-16.611-33.176-26.559
		c5.66,6.762,9.572,14.731,12.719,22.918c2.428,6.26,4.881,12.527,6.959,18.92c-10.832-18.142-19.514-38.269-35.379-52.789
		c3.272,6.056,7.085,11.809,10.324,17.891c-2.757-2.658-5.165-5.667-8.246-7.956c-3.628-2.751-7.197-5.759-11.465-7.441
		c2.039,3.747,4.79,7.032,7.032,10.661c3.622,5.687,7.369,11.314,10.707,17.185c-2.461-2.256-4.4-5.014-6.907-7.217
		c-3.932-3.609-8.312-6.703-12.837-9.5c6.419,5.693,11.003,13.036,15.41,20.312c-7.56-6.716-16.004-12.33-24.586-17.634
		c8.628,7.112,17.112,14.441,24.771,22.614c5.119,5.581,10.403,11.07,15.028,17.073c-2.982-2.441-5.594-5.297-8.563-7.745
		c-8.596-7.362-18.003-13.682-27.192-20.259c-3.094-2.124-6.05-4.44-9.249-6.386c8.708,8.035,17.046,16.875,21.955,27.819
		c-3.298-3.477-6.274-7.276-10.021-10.298c-7.349-6.069-15.476-11.109-23.571-16.097c1.563,3.872,3.892,7.468,7.065,10.225
		c3.232,3.002,6.973,5.37,10.377,8.167c-5.297-1.755-10.371-4.308-14.685-7.857c-2.507-1.959-4.677-4.295-7.197-6.214
		c2.988,5.522,5.911,11.169,7.382,17.323c1.563,6.742,2.46,13.675,2.672,20.589c-1.069-2.183-1.042-4.717-1.742-7.012
		c-1.9-8.774-6.293-16.802-11.664-23.914c1.9,5.753,3.734,11.558,4.453,17.601c0.95,7.725,1.939,15.49,2.058,23.274
		c-2.329-9.183-4.314-18.748-9.46-26.856c-3.635-5.673-8.992-10.021-14.816-13.293c0.963,13.629,1.662,27.641,6.887,40.446
		c3.859,9.467,10.621,17.258,17.021,25.075c-8.49-4.176-15.622-10.793-20.721-18.729c-6.828-10.278-10.845-22.034-15.542-33.348
		c2.909,10.443,5.766,20.978,6.722,31.817c0.785,9.025,1.016,18.115,0.772,27.173c-1.214-11.393-2.777-22.819-6.095-33.816
		c-3.008-10.014-6.426-19.969-11.109-29.33c-1.366-2.659-3.035-5.146-4.888-7.474c0.053,8.127,0.211,16.4,2.553,24.257
		c0.996,3.74,2.619,7.276,3.714,10.99c-5.792-7.118-10.536-15.199-13.022-24.079c-0.838-2.579-1.333-5.258-2.388-7.751
		c-0.304,8.081-0.429,16.189-1.577,24.211c-1.049,7.263-2.111,14.546-3.734,21.704c-0.857-14.533,0.271-29.515-4.249-43.566
		c0.653,14.052,1.122,28.136,0.31,42.187c-0.481,10.654-2.355,21.361-7.072,31.012c-0.152-0.053-0.455-0.152-0.607-0.204
		c4.037-13.577,3.998-28.024,2.81-42.022c-1.385-11.314-3.186-23.373-10.443-32.589c0.548,5.152,1.306,10.298,1.214,15.503
		c-0.066,6.34-0.811,12.646-1.543,18.933c-1.306-7.428-1.577-15.12-4.282-22.238c-1.669-4.479-4.552-8.358-7.679-11.914
		c0.31,8.22,0.548,16.572,2.956,24.508c2.81,9.447,8.82,17.409,14.104,25.576c-6.095-2.276-9.816-7.936-13.412-13.009
		c-5.68-8.55-11.103-17.455-14.196-27.298c-1.174-3.463-1.511-7.125-2.514-10.621c-0.778,12.844-1.174,25.919,1.788,38.539
		c2.025,9.295,5.555,18.155,8.536,27.16c-7.012-8.048-10.641-18.339-13.286-28.512c-3.463-13.227-4.559-26.902-6.254-40.426
		c-1.689,12.429-3.332,24.87-5.39,37.246c-1.491,8.754-3.133,17.601-6.742,25.774c1.775-14.045,3.048-28.242,2.487-42.425
		c-0.343-7.949-1.847-15.852-4.532-23.333c-2.909,8.556-4.334,17.7-3.246,26.718c0.396,6.016,2.039,11.888,2.388,17.904
		c-2.507-7.6-5.225-15.219-6.017-23.234c-0.772-5.99-0.376-12.039-0.732-18.043c-2.474,12.013-4.4,24.224-4.275,36.527
		c0,7.797,0.679,15.569,1.128,23.347c-5.878-14.738-5.561-30.841-6.722-46.403c-0.409-4.374-0.449-8.879-1.92-13.055
		c-0.323-0.91-1.333-2.461-2.395-1.458c-1.926,1.491-2.718,3.952-3.701,6.102c-3.602,9.269-6.742,18.742-10.839,27.819
		c3.377-12.712,5.304-25.748,7.217-38.744c-5.535,7.534-9.988,15.859-12.93,24.745c-1.986,5.64-3.668,11.38-5.383,17.106
		c1.194-11.254,3.49-22.416,3.727-33.763c0.026-3.529-0.264-7.065-0.976-10.516c-0.719,0.139-1.168,0.745-1.643,1.247
		c-11.419,12.468-23.215,24.831-37.121,34.548c11.598-11.182,22.12-23.716,29.594-38.078c-7.784,4.585-14.995,10.067-22.542,15.015
		c4.07-5.02,7.916-10.311,10.555-16.242c-7.586,7.778-16.163,14.546-25.207,20.543c6.801-6.597,11.875-14.691,15.964-23.182
		c-10.799,9.928-21.842,19.731-34.363,27.476c7.217-8.028,15.43-15.397,20.714-24.956c3.2-5.403,4.948-11.551,5.436-17.792
		c-3.978,2.381-7.501,5.396-10.997,8.411c1.834-4.163,3.826-8.339,4.44-12.904c-2.711,4.987-6.795,9.143-11.663,12.046
		c1.992-2.593,4.301-4.994,5.713-7.976c1.939-3.912,2.256-8.332,2.751-12.594c7.784,7.936,15.661,16.248,25.873,21.057
		c9.796,4.624,20.352,7.342,30.821,9.955c13.141,3.219,26.784,4.44,40.261,3.081c8.325-0.627,16.505-2.388,24.798-3.232
		c8.563-0.871,17,1.187,25.424,2.368c13.53,2.071,27.516,1.788,40.802-1.656c9.104-2.368,17.574-6.755,25.194-12.218
		c10.337-7.349,19.448-16.255,29.686-23.729C4338.712,1535.618,4346.905,1531.95,4355.271,1529.014z"/>
	<path fill="#434242" d="M4072.678,1541.76c3.496,4.321,6.537,8.998,9.882,13.445c-0.574,0.976-1.135,1.979-1.708,2.969
		C4078.074,1552.724,4075.165,1547.341,4072.678,1541.76z"/>
	<path fill="#434242" d="M4435.792,1544.392c1.504,11.017,2.204,22.159,2.764,33.268c0.521,13.168,0.119,26.46-2.507,39.41
		c-4.235,21.387-13.029,41.455-19.303,62.255c-6.096,20.101-11.617,40.776-11.347,61.952c-0.099,4.855,0.587,9.711,0.264,14.573
		c-0.832-11.261-2.448-22.462-3.068-33.743c-1.623-22.496-0.356-45.334,5.357-67.203c5.046-19.534,13.735-37.913,18.649-57.486
		C4431.128,1580.022,4433.127,1562.118,4435.792,1544.392z"/>
	<path fill="#434242" d="M4088.101,1572.079c1.181-1.089,2.355-2.184,3.602-3.186c-0.66,1.874-1.557,3.668-2.612,5.37
		C4088.748,1573.517,4088.418,1572.792,4088.101,1572.079z"/>
	<path fill="#434242" d="M4399.866,1611.126c4.189-11.855,10.331-22.898,16.69-33.704c-5.37,19.586-11.201,39.074-15.437,58.95
		c-2.184,9.763-4.011,19.599-6.023,29.389c-0.607-4.479-0.416-9.018-0.581-13.517
		C4394.305,1638.398,4395.136,1624.268,4399.866,1611.126z"/>
	<path fill="#434242" d="M4103.809,1598.836c2.975-2.012,5.805-4.242,8.913-6.056c-2.131,3.714-5.205,6.775-7.976,10.014
		c-0.963-1.636-1.88-3.292-2.56-5.04C4102.588,1598.025,4103.399,1598.566,4103.809,1598.836z"/>
	<path fill="#434242" d="M4324.113,1595.34c2.348-0.97,4.994-1.775,7.276-0.132c-0.04,0.145-0.119,0.435-0.159,0.58
		c-2.058,1.121-4.261,1.94-6.373,2.949C4324.608,1597.596,4324.351,1596.448,4324.113,1595.34z"/>
	<path fill="#434242" d="M4454.693,1597.919c0.692,1.517,0.191,3.226,0.211,4.842c-1.167,21.691-2.876,43.507-8.266,64.617
		c-5.132,20.24-13.029,39.615-19.395,59.471c-5.488,16.915-8.813,34.443-11.135,52.05c-0.521,3.312-0.706,6.676-1.465,9.955
		c-0.534-10.344-0.323-20.721-0.297-31.072c0.205-14.52,0.673-29.224,4.493-43.322c5.132-18.88,14.619-36.158,21.242-54.497
		C4447.667,1640.014,4451.157,1618.865,4454.693,1597.919z"/>
	<path fill="#434242" d="M4341.582,1601.046c1.399-0.501,3.042-1.788,4.269-0.191c-6.307,3.958-12.778,7.672-19.375,11.136
		c-0.151-1.609-0.31-3.206-0.468-4.789C4331.211,1605.196,4336.443,1603.237,4341.582,1601.046z"/>
	<path fill="#434242" d="M4296.828,1602.498c1.926-0.442,3.853-0.884,5.786-1.333c1.069,1.801,2.032,3.675,2.889,5.607
		c-2.54,0.917-5.093,1.814-7.652,2.665C4297.461,1607.129,4297.132,1604.807,4296.828,1602.498z"/>
	<path fill="#434242" d="M4109.937,1611.964c3.747-3.107,7.408-6.333,10.925-9.697c3.457,3.576,7.032,7.039,10.674,10.443
		c-0.64,5.185-1.841,10.37-2.104,15.562c2.48,0.673,5.02,1.115,7.527,1.702c0.996-3.015,1.663-6.142,2.804-9.097
		c0.251-0.139,0.759-0.409,1.016-0.547c-0.587,2.553-1.524,5.014-2.315,7.521c2.573,0.923,5.146,1.874,7.711,2.83
		c0.541-1.3,1.076-2.599,1.636-3.879c4.816,3.991,9.737,7.864,14.711,11.663c0.68,0.554,1.524,1.102,1.689,2.072
		c1.155,4.314,2.553,8.563,4.057,12.778c2.428-0.515,4.855-1.016,7.296-1.491c-0.073-1.069-0.125-2.124-0.178-3.167
		c1.128,0.706,2.236,1.478,3.345,2.25c-0.449,1.484-0.911,2.975-1.339,4.479c2.48,0.924,4.948,1.913,7.435,2.856
		c0.185-0.409,0.561-1.227,0.745-1.636c7.765,6.432,15.087,13.642,20.227,22.396c5.917,10.047,9.169,21.368,12.125,32.569
		c4.525,17.95,8.391,36.059,12.468,54.115c3.635,16.486,7.349,32.965,10.885,49.477c-21.921-26.797-41.574-55.355-60.072-84.592
		C4156.518,1691.609,4132.855,1651.995,4109.937,1611.964z"/>
	<path fill="#434242" d="M4271.457,1611.568c1.062,0.435,1.524,2.408,1.313,3.51
		C4271.654,1614.689,4271.107,1612.617,4271.457,1611.568z"/>
	<path fill="#434242" d="M4257.213,1618.845c0.277-2.342,0.515-4.69,1.076-6.973c1.207,2.052,2.415,4.117,3.708,6.142
		C4260.4,1618.291,4258.797,1618.555,4257.213,1618.845z"/>
	<path fill="#434242" d="M4299.012,1615.111c2.916-0.693,5.845-1.372,8.761-2.098c0.673,2.283,1.319,4.585,1.939,6.9
		c-2.711,1.102-5.442,2.137-8.193,3.12C4300.542,1620.428,4299.737,1617.776,4299.012,1615.111z"/>
	<path fill="#434242" d="M4235.371,1616.727l0.323-0.04c1.062,6.571,1.623,13.22,1.643,19.883c-1.517-1.643-2.691-3.549-3.872-5.423
		C4234.718,1626.451,4234.804,1621.536,4235.371,1616.727z"/>
	<path fill="#434242" d="M4210.184,1618.159c5.066,8.075,9.73,16.644,16.717,23.274c2.883,2.639,6.604,4.004,10.205,5.37
		c-0.455,8.497-2.507,16.796-5.159,24.851c2.441,0.97,4.888,1.92,7.342,2.883c4.387-8.675,8.319-17.733,9.645-27.45
		c10.582,0.957,21.196,1.557,31.817,1.807c1.042,4.783,1.174,9.75,1.821,14.619c2.804-0.356,5.825,0.231,8.477-0.93
		c11.057-0.224,22.166-0.125,33.13-1.728c1.808,0.976,3.602,1.992,5.37,3.054c-19.309,6.94-39.964,8.094-60.164,10.509
		c14.817-0.125,29.7-0.066,44.411-2.111c7.771-0.924,15.397-2.85,23.168-3.734c-3.364,1.946-7.204,2.81-10.839,4.11
		c-13.794,4.341-27.826,8.16-42.201,10.021c-7.969,1.207-16.05,1.3-24.039,2.19c22.826,1.88,45.954,3.595,68.707,0.007
		c9.585-1.392,19.013-3.635,28.486-5.594c-9.038,5.581-18.735,10.225-29.007,13.042c-9.902,2.738-20.008,4.644-30.115,6.425
		c13.313,0.745,26.685-0.6,39.839-2.678c5.865-0.851,11.67-2.124,17.555-2.87c-8.721,2.982-17.568,5.66-26.553,7.705
		c-18.405,4.222-37.424,4.011-56.186,3.74c9.605,1.616,19.349,2.395,29.046,3.384c14.949,1.28,30.22,2.144,44.958-1.293
		c5.33-1.108,10.423-3.061,15.654-4.539c-2.395,1.728-5.211,2.698-7.831,4.011c-13.134,6.096-26.585,11.842-40.828,14.744
		c-13.042,2.606-26.395,3.417-39.667,3.457c3.925,0.91,7.989,0.864,11.987,1.3c15.582,1.267,31.19,2.401,46.832,2.368
		c4.545,0.092,9.097-0.244,13.643,0.053c-25.181,6.049-51.318,5.786-77.039,4.895c4.783,1.023,9.704,1.24,14.553,1.893
		c14.263,1.57,28.551,3.127,42.9,3.655c11.076,0.416,22.291-0.185,33.031-3.107c2.698-0.66,5.284-1.768,8.062-2.124
		c-9.671,4.816-19.573,9.275-29.858,12.627c-10.186,3.338-20.813,5.086-31.454,6.168c-8.312,0.996-16.716,1.042-25.009,2.032
		c9.038,1.689,18.267,2.5,27.463,2.151c11.419-0.416,22.766-1.86,34.119-3.087l0.04,0.33c-15.958,5.317-32.793,7.006-49.286,9.895
		c12.376,0.026,24.765-1.082,36.864-3.747c8.741-1.695,17.291-4.268,26.019-5.99c-8.055,4.117-16.486,7.567-25.115,10.278
		c-13.319,4.097-27.351,4.875-41.185,5.416c-1.992,0.059-3.965,0.303-5.924,0.581c9.908,0.152,19.797,1.273,29.726,1.181
		c11.367,0.086,22.799-0.95,33.796-3.925c10.707-2.738,20.906-7.039,31.197-10.99c-13.095,12.151-29.311,20.536-46.132,26.276
		c-14.184,4.644-29.152,6.452-44.008,7.191c3.958,0.554,7.969,0.402,11.96,0.416c11.479-0.053,23.043-0.607,34.258-3.219
		c9.064-2.019,17.818-5.132,26.612-8.061c-5.693,4.776-11.657,9.242-17.845,13.359c-13.214,8.767-28.248,14.17-43.084,19.468
		c7.514-0.726,14.981-2.058,22.284-3.985c9.341-2.48,18.096-6.834,26.13-12.151c9.262-6.122,17.832-13.286,25.524-21.282
		c4.868-4.901,9.005-10.456,13.642-15.542c-7.692,15.127-16.334,30.161-28.479,42.201c-12.66,12.343-29.245,19.303-45.334,25.959
		c6.234-0.699,12.409-1.847,18.59-2.929c10.753-2.025,21.579-4.605,31.296-9.79c9.948-5.185,18.412-12.765,25.919-21.011
		c4.294-4.545,8.015-9.592,12.237-14.19c-4.605,9.236-9.625,18.32-15.714,26.672c-10.43,14.46-25.438,24.659-36.771,38.321
		c-11.895,14.296-20.642,30.834-29.456,47.115c8.101-9.863,16.618-19.441,26.349-27.74c12.738-11.089,26.196-21.321,39.113-32.193
		c9.124-7.613,18.01-15.496,26.968-23.294c-5.838,13.121-16.321,23.254-26.42,33.136c-10.292,10.14-20.668,20.305-29.343,31.903
		c-7.217,9.592-13.313,19.956-19.052,30.484c-1.313,2.434-2.745,4.816-3.807,7.382c6.604-9.922,13.629-19.613,21.776-28.34
		c14.896-15.945,32.49-29.04,47.993-44.364c8.055-7.93,15.127-16.855,20.979-26.52c1.788-2.771,3.212-5.772,5.192-8.411
		c-2.468,9.117-5.627,18.148-10.357,26.361c-5.416,9.592-13.333,17.37-20.998,25.141c-8.576,8.622-17.06,17.422-24.151,27.338
		c-12.976,18.254-22.1,39.225-26.79,61.114c-4.974,23.512-3.378,47.729-1.3,71.478c-1.979-7.448-3.048-15.12-4.928-22.594
		c-5.416-24.178-14.428-47.366-24.633-69.881c-11.743-25.86-25.24-50.895-36.33-77.059c-15.74-36.521-27.701-74.526-39.146-112.563
		c-5.37-18.188-10.707-36.389-15.536-54.728c0.891,1.069,1.788,2.256,2.659,3.397c-1.754-5.344-3.839-10.568-5.746-15.852
		c-1.86-4.638-2.883-9.546-4.229-14.342C4216.306,1639.988,4213.291,1629.057,4210.184,1618.159z"/>
	<path fill="#434242" d="M4257.042,1619.841c1.999-0.125,4.004-0.244,6.01-0.343c2.461,3.569,5.1,7.013,7.659,10.516
		c-5.211,0.699-10.437,1.26-15.674,1.709C4255.756,1627.771,4256.435,1623.806,4257.042,1619.841z"/>
	<path fill="#434242" d="M4316.263,1645.464c11.426-2.349,22.542-5.937,33.704-9.269c-8.391,6.716-17.68,12.416-27.773,16.196
		C4320.208,1650.081,4318.229,1647.779,4316.263,1645.464z"/>
	<path fill="#434242" d="M4253.935,1637.672c6.432,1.267,12.871,2.632,19.435,3.114c1.913,0.178,3.872,0.106,5.772,0.515
		c0.548,0.765,0.858,1.649,1.267,2.533c-10.41,1.24-20.892,1.695-31.355,2.203c0.165-1.372,0.343-2.731,0.528-4.077
		c1.174,0.105,2.348,0.191,3.542,0.323C4253.394,1640.74,4253.658,1639.196,4253.935,1637.672z"/>
	<path fill="#434242" d="M4290.456,1641.103c1.966-0.092,3.938-0.198,5.924-0.106c-1.471,1.623-3.965,1.095-5.904,1.59
		C4290.469,1642.218,4290.456,1641.472,4290.456,1641.103z"/>
	<path fill="#434242" d="M4290.607,1648.689c3.721-0.152,7.441-0.508,11.155-0.844c1.022-0.211,1.742,0.732,2.546,1.214
		c2.995,2.368,6.432,4.057,9.592,6.188c-7.685,2.362-15.463,4.38-23.261,6.327
		C4290.634,1657.279,4290.647,1652.977,4290.607,1648.689z"/>
	<path fill="#434242" d="M4475.823,1649.521c-1.649,7.131-4.051,14.078-5.964,21.15c-10.298,35.795-19.738,72.138-22.456,109.417
		c-1.161,15.265-0.66,30.669,1.84,45.789c1.108,7.303,2.797,14.507,4.169,21.77c-7.046-13.708-13.9-27.747-17.317-42.86
		c-4.004-17.673-2.388-36.019,0.66-53.706c3.595-20.187,9.018-40.129,17.073-59.016
		C4460.049,1677.333,4467.999,1663.44,4475.823,1649.521z"/>
	<path fill="#434242" d="M4328.79,1660.082c8.761-1.662,17.1-4.888,25.464-7.87c-7.237,4.341-14.968,7.87-22.819,10.971
		C4330.545,1662.141,4329.668,1661.105,4328.79,1660.082z"/>
	<path fill="#434242" d="M4477.109,1730.01c5.752-16.783,13.233-33.578,26.084-46.178c-6.076,16.406-12.442,32.74-17.231,49.589
		c-9.098,31.177-11.868,63.74-13.669,96.031c-0.33,8.814-1.016,17.653-0.627,26.48c-1.002-1.682-0.937-3.727-1.346-5.568
		c-2.823-16.209-5.37-32.543-5.653-49.028C4464.133,1777.026,4469.358,1752.934,4477.109,1730.01z"/>
	<path fill="#434242" d="M4168.478,1725.656c5.977,7.408,11.802,14.955,17.746,22.403c-3.681,2.25-7.441,4.684-9.823,8.398
		c-3.681,5.62-4.308,12.561-4.453,19.118c-0.073,13.003,2.283,25.985,6.597,38.242c5.594,15.463,13.392,30.003,19.25,45.36
		c12.574,32.635,21.486,66.636,27.186,101.131c1.537,9.467,3.134,18.927,4.347,28.446c-4.829-8.886-9.156-18.043-13.174-27.318
		c-7.098-16.604-11.954-34.047-16.36-51.528c-2.599-10.397-4.849-20.893-7.89-31.171c-8.424-28.222-18.801-56.041-23.241-85.272
		C4165.206,1771.003,4166.473,1748.184,4168.478,1725.656z"/>
	<path fill="#434242" d="M4498.219,1736.468c0.653,2.87,0.06,5.845,0.119,8.774c-0.957,34.297-1.979,68.615-0.811,102.919
		c0.039,4.684,0.527,9.368,0.27,14.052c-1.906-6.069-2.737-12.435-4.03-18.656c-3.048-16.341-4.618-33.018-3.543-49.635
		C4491.444,1774.605,4494.637,1755.467,4498.219,1736.468z"/>
	<path fill="#434242" d="M4516.895,1792.047c0.521-4.281,0.442-8.853,2.58-12.719c1.939,3.246,2.025,7.145,2.659,10.793
		c2.507,19.943,3.78,40.017,5.449,60.045c0.35,2.599-0.442,5.429-2.197,7.382c-1.167,0.092-1.603-1.253-2.091-2.032
		c-1.821-3.998-2.784-8.312-3.728-12.567C4516.097,1826.239,4515.596,1809.021,4516.895,1792.047z"/>
</g>
</svg>
